<?xml version="1.0" encoding="UTF-8"?>
<svg id="_レイヤー_2" data-name="レイヤー 2" xmlns="http://www.w3.org/2000/svg" xmlns:xlink="http://www.w3.org/1999/xlink" viewBox="0 0 1280 170">
  <defs>
    <style>
      .cls-1 {
        fill: #fff;
      }

      .cls-2 {
        fill: url(#_新規パターンスウォッチ_4);
      }

      .cls-3 {
        clip-path: url(#clippath-2);
      }

      .cls-4 {
        isolation: isolate;
      }

      .cls-5 {
        fill: #178de6;
      }

      .cls-6 {
        filter: url(#drop-shadow-1);
      }

      .cls-7 {
        clip-path: url(#clippath-1);
      }

      .cls-8 {
        clip-path: url(#clippath);
      }

      .cls-9 {
        fill: none;
      }

      .cls-10 {
        fill: #00a0e9;
      }
    </style>
    <clipPath id="clippath">
      <rect class="cls-9" width="1280" height="170"/>
    </clipPath>
    <clipPath id="clippath-1">
      <rect class="cls-9" width="1280" height="174.06"/>
    </clipPath>
    <filter id="drop-shadow-1" filterUnits="userSpaceOnUse">
      <feOffset dx="4.06" dy="4.06"/>
      <feGaussianBlur result="blur" stdDeviation="0"/>
      <feFlood flood-color="#0d1e42" flood-opacity=".5"/>
      <feComposite in2="blur" operator="in"/>
      <feComposite in="SourceGraphic"/>
    </filter>
    <clipPath id="clippath-2">
      <polygon class="cls-9" points="0 1323.7 0 0 1323.7 0 1323.7 1323.7 0 1323.7"/>
    </clipPath>
    <pattern id="_新規パターンスウォッチ_4" data-name="新規パターンスウォッチ 4" x="0" y="0" width="1323.7" height="1323.7" patternTransform="translate(6618.52 -3839.76)" patternUnits="userSpaceOnUse" viewBox="0 0 1323.7 1323.7">
      <g>
        <rect class="cls-9" x="0" width="1323.7" height="1323.7"/>
        <g class="cls-3">
          <g>
            <polygon class="cls-10" points="-634.27 689.43 -643.47 680.24 680.24 -643.47 689.43 -634.27 -634.27 689.43"/>
            <polygon class="cls-10" points="-542.35 781.35 -551.54 772.16 772.16 -551.54 781.35 -542.35 -542.35 781.35"/>
            <polygon class="cls-10" points="-505.58 818.12 -514.77 808.93 808.93 -514.77 818.12 -505.58 -505.58 818.12"/>
            <polygon class="cls-10" points="-523.97 799.74 -533.16 790.55 790.55 -533.16 799.74 -523.97 -523.97 799.74"/>
            <polygon class="cls-10" points="-579.12 744.58 -588.31 735.39 735.39 -588.31 744.58 -579.12 -579.12 744.58"/>
            <polygon class="cls-10" points="-615.89 707.81 -625.08 698.62 698.62 -625.08 707.81 -615.89 -615.89 707.81"/>
            <polygon class="cls-10" points="-597.51 726.2 -606.7 717.01 717.01 -606.7 726.2 -597.5 -597.51 726.2"/>
            <polygon class="cls-10" points="-560.74 762.97 -569.93 753.78 753.78 -569.93 762.97 -560.74 -560.74 762.97"/>
            <polygon class="cls-10" points="-652.66 671.04 -661.85 661.85 661.85 -661.85 671.04 -652.66 -652.66 671.04"/>
            <polygon class="cls-10" points="-468.81 854.89 -478 845.7 845.7 -478 854.89 -468.81 -468.81 854.89"/>
            <polygon class="cls-10" points="-376.89 946.82 -386.08 937.62 937.62 -386.08 946.82 -376.89 -376.89 946.82"/>
            <polygon class="cls-10" points="-340.12 983.59 -349.31 974.39 974.39 -349.31 983.59 -340.12 -340.12 983.59"/>
            <polygon class="cls-10" points="-358.5 965.2 -367.7 956.01 956.01 -367.69 965.2 -358.5 -358.5 965.2"/>
            <polygon class="cls-10" points="-413.66 910.05 -422.85 900.85 900.85 -422.85 910.05 -413.66 -413.66 910.05"/>
            <polygon class="cls-10" points="-450.43 873.28 -459.62 864.08 864.08 -459.62 873.28 -450.43 -450.43 873.28"/>
            <polygon class="cls-10" points="-432.04 891.66 -441.23 882.47 882.47 -441.23 891.66 -432.04 -432.04 891.66"/>
            <polygon class="cls-10" points="-395.27 928.43 -404.46 919.24 919.24 -404.46 928.43 -395.27 -395.27 928.43"/>
            <polygon class="cls-10" points="-487.2 836.51 -496.39 827.31 827.32 -496.39 836.51 -487.2 -487.2 836.51"/>
            <polygon class="cls-10" points="-303.35 1020.36 -312.54 1011.16 1011.16 -312.54 1020.36 -303.35 -303.35 1020.36"/>
            <polygon class="cls-10" points="-211.42 1112.28 -220.62 1103.09 1103.09 -220.62 1112.28 -211.42 -211.42 1112.28"/>
            <polygon class="cls-10" points="-174.66 1149.05 -183.85 1139.86 1139.86 -183.85 1149.05 -174.65 -174.66 1149.05"/>
            <polygon class="cls-10" points="-193.04 1130.66 -202.23 1121.47 1121.47 -202.23 1130.66 -193.04 -193.04 1130.66"/>
            <polygon class="cls-10" points="-248.19 1075.51 -257.39 1066.32 1066.32 -257.39 1075.51 -248.19 -248.19 1075.51"/>
            <polygon class="cls-10" points="-284.96 1038.74 -294.16 1029.55 1029.55 -294.16 1038.74 -284.96 -284.96 1038.74"/>
            <polygon class="cls-10" points="-266.58 1057.12 -275.77 1047.93 1047.93 -275.77 1057.12 -266.58 -266.58 1057.12"/>
            <polygon class="cls-10" points="-229.81 1093.89 -239 1084.7 1084.7 -239 1093.89 -229.81 -229.81 1093.89"/>
            <polygon class="cls-10" points="-321.73 1001.97 -330.93 992.78 992.78 -330.93 1001.97 -321.73 -321.73 1001.97"/>
            <polygon class="cls-10" points="-137.89 1185.82 -147.08 1176.63 1176.63 -147.08 1185.82 -137.88 -137.89 1185.82"/>
            <polygon class="cls-10" points="-45.96 1277.74 -55.15 1268.55 1268.55 -55.15 1277.74 -45.96 -45.96 1277.74"/>
            <polygon class="cls-10" points="-9.19 1314.51 -18.39 1305.32 1305.32 -18.38 1314.51 -9.19 -9.19 1314.51"/>
            <polygon class="cls-10" points="-27.58 1296.13 -36.77 1286.93 1286.93 -36.77 1296.13 -27.58 -27.58 1296.13"/>
            <polygon class="cls-10" points="-82.73 1240.97 -91.92 1231.78 1231.78 -91.92 1240.97 -82.73 -82.73 1240.97"/>
            <polygon class="cls-10" points="-119.5 1204.2 -128.69 1195.01 1195.01 -128.69 1204.2 -119.5 -119.5 1204.2"/>
            <polygon class="cls-10" points="-101.12 1222.59 -110.31 1213.4 1213.4 -110.31 1222.59 -101.12 -101.12 1222.59"/>
            <polygon class="cls-10" points="-64.35 1259.36 -73.54 1250.16 1250.16 -73.54 1259.36 -64.35 -64.35 1259.36"/>
            <polygon class="cls-10" points="-156.27 1167.43 -165.46 1158.24 1158.24 -165.46 1167.43 -156.27 -156.27 1167.43"/>
            <polygon class="cls-10" points="27.58 1351.28 18.39 1342.09 1342.09 18.39 1351.28 27.58 27.58 1351.28"/>
            <polygon class="cls-10" points="119.5 1443.2 110.31 1434.01 1434.01 110.31 1443.21 119.5 119.5 1443.2"/>
            <polygon class="cls-10" points="156.27 1479.97 147.08 1470.78 1470.78 147.08 1479.97 156.27 156.27 1479.97"/>
            <polygon class="cls-10" points="137.89 1461.59 128.69 1452.4 1452.4 128.69 1461.59 137.89 137.89 1461.59"/>
            <polygon class="cls-10" points="82.73 1406.44 73.54 1397.24 1397.24 73.54 1406.44 82.73 82.73 1406.44"/>
            <polygon class="cls-10" points="45.96 1369.67 36.77 1360.47 1360.47 36.77 1369.67 45.96 45.96 1369.67"/>
            <polygon class="cls-10" points="64.35 1388.05 55.15 1378.86 1378.86 55.16 1388.05 64.35 64.35 1388.05"/>
            <polygon class="cls-10" points="101.12 1424.82 91.92 1415.63 1415.63 91.92 1424.82 101.12 101.12 1424.82"/>
            <polygon class="cls-10" points="9.19 1332.9 0 1323.7 1323.7 0 1332.9 9.19 9.19 1332.9"/>
            <polygon class="cls-10" points="193.04 1516.74 183.85 1507.55 1507.55 183.85 1516.74 193.04 193.04 1516.74"/>
            <polygon class="cls-10" points="284.96 1608.67 275.77 1599.48 1599.48 275.77 1608.67 284.97 284.96 1608.67"/>
            <polygon class="cls-10" points="321.73 1645.44 312.54 1636.25 1636.25 312.54 1645.44 321.73 321.73 1645.44"/>
            <polygon class="cls-10" points="303.35 1627.05 294.16 1617.86 1617.86 294.16 1627.05 303.35 303.35 1627.05"/>
            <polygon class="cls-10" points="248.19 1571.9 239 1562.71 1562.71 239 1571.9 248.2 248.19 1571.9"/>
            <polygon class="cls-10" points="211.43 1535.13 202.23 1525.94 1525.94 202.23 1535.13 211.43 211.43 1535.13"/>
            <polygon class="cls-10" points="229.81 1553.51 220.62 1544.32 1544.32 220.62 1553.51 229.81 229.81 1553.51"/>
            <polygon class="cls-10" points="266.58 1590.28 257.39 1581.09 1581.09 257.39 1590.28 266.58 266.58 1590.28"/>
            <polygon class="cls-10" points="174.66 1498.36 165.46 1489.17 1489.17 165.46 1498.36 174.66 174.66 1498.36"/>
            <polygon class="cls-10" points="358.5 1682.21 349.31 1673.01 1673.01 349.31 1682.21 358.5 358.5 1682.21"/>
            <polygon class="cls-10" points="450.43 1774.13 441.23 1764.94 1764.94 441.24 1774.13 450.43 450.43 1774.13"/>
            <polygon class="cls-10" points="487.2 1810.9 478 1801.71 1801.71 478.01 1810.9 487.2 487.2 1810.9"/>
            <polygon class="cls-10" points="468.81 1792.52 459.62 1783.32 1783.32 459.62 1792.52 468.81 468.81 1792.52"/>
            <polygon class="cls-10" points="413.66 1737.36 404.47 1728.17 1728.17 404.47 1737.36 413.66 413.66 1737.36"/>
            <polygon class="cls-10" points="376.89 1700.59 367.7 1691.4 1691.4 367.7 1700.59 376.89 376.89 1700.59"/>
            <polygon class="cls-10" points="395.27 1718.98 386.08 1709.78 1709.78 386.08 1718.98 395.27 395.27 1718.98"/>
            <polygon class="cls-10" points="432.04 1755.75 422.85 1746.55 1746.55 422.85 1755.75 432.04 432.04 1755.75"/>
            <polygon class="cls-10" points="340.12 1663.82 330.93 1654.63 1654.63 330.93 1663.82 340.12 340.12 1663.82"/>
            <polygon class="cls-10" points="523.97 1847.67 514.77 1838.48 1838.48 514.78 1847.67 523.97 523.97 1847.67"/>
            <polygon class="cls-10" points="615.89 1939.59 606.7 1930.4 1930.4 606.7 1939.59 615.89 615.89 1939.59"/>
            <polygon class="cls-10" points="652.66 1976.36 643.47 1967.17 1967.17 643.47 1976.36 652.66 652.66 1976.36"/>
            <polygon class="cls-10" points="634.27 1957.98 625.08 1948.79 1948.79 625.08 1957.98 634.28 634.27 1957.98"/>
            <polygon class="cls-10" points="579.12 1902.82 569.93 1893.63 1893.63 569.93 1902.82 579.12 579.12 1902.82"/>
            <polygon class="cls-10" points="542.35 1866.06 533.16 1856.86 1856.86 533.16 1866.05 542.35 542.35 1866.06"/>
            <polygon class="cls-10" points="560.74 1884.44 551.54 1875.25 1875.25 551.54 1884.44 560.74 560.74 1884.44"/>
            <polygon class="cls-10" points="597.51 1921.21 588.31 1912.02 1912.02 588.31 1921.21 597.51 597.51 1921.21"/>
            <g>
              <polygon class="cls-5" points="-496.39 827.31 -505.58 818.12 818.12 -505.58 827.32 -496.39 -496.39 827.31"/>
              <polygon class="cls-5" points="-533.16 790.55 -542.35 781.35 781.35 -542.35 790.55 -533.16 -533.16 790.55"/>
              <polygon class="cls-5" points="-551.54 772.16 -560.74 762.97 762.97 -560.73 772.16 -551.54 -551.54 772.16"/>
              <polygon class="cls-5" points="-625.08 698.62 -634.27 689.43 689.43 -634.27 698.62 -625.08 -625.08 698.62"/>
              <polygon class="cls-5" points="-514.77 808.93 -523.97 799.74 799.74 -523.97 808.93 -514.77 -514.77 808.93"/>
              <polygon class="cls-5" points="-606.7 717.01 -615.89 707.81 707.81 -615.89 717.01 -606.7 -606.7 717.01"/>
              <polygon class="cls-5" points="-569.93 753.78 -579.12 744.58 744.58 -579.12 753.78 -569.93 -569.93 753.78"/>
              <polygon class="cls-5" points="-588.31 735.39 -597.5 726.2 726.2 -597.5 735.39 -588.31 -588.31 735.39"/>
              <polygon class="cls-5" points="-643.47 680.24 -652.66 671.04 671.04 -652.66 680.24 -643.47 -643.47 680.24"/>
              <polygon class="cls-5" points="-330.93 992.78 -340.12 983.59 983.59 -340.12 992.78 -330.93 -330.93 992.78"/>
              <polygon class="cls-5" points="-367.7 956.01 -376.89 946.82 946.82 -376.89 956.01 -367.69 -367.7 956.01"/>
              <polygon class="cls-5" points="-386.08 937.62 -395.27 928.43 928.43 -395.27 937.62 -386.08 -386.08 937.62"/>
              <polygon class="cls-5" points="-459.62 864.08 -468.81 854.89 854.89 -468.81 864.08 -459.62 -459.62 864.08"/>
              <polygon class="cls-5" points="-349.31 974.39 -358.5 965.2 965.2 -358.5 974.39 -349.31 -349.31 974.39"/>
              <polygon class="cls-5" points="-441.23 882.47 -450.43 873.28 873.28 -450.43 882.47 -441.23 -441.23 882.47"/>
              <polygon class="cls-5" points="-404.46 919.24 -413.66 910.05 910.05 -413.66 919.24 -404.46 -404.46 919.24"/>
              <polygon class="cls-5" points="-422.85 900.85 -432.04 891.66 891.66 -432.04 900.85 -422.85 -422.85 900.85"/>
              <polygon class="cls-5" points="-478 845.7 -487.2 836.51 836.51 -487.2 845.7 -478 -478 845.7"/>
              <polygon class="cls-5" points="-165.46 1158.24 -174.66 1149.05 1149.05 -174.65 1158.24 -165.46 -165.46 1158.24"/>
              <polygon class="cls-5" points="-202.23 1121.47 -211.42 1112.28 1112.28 -211.42 1121.47 -202.23 -202.23 1121.47"/>
              <polygon class="cls-5" points="-220.62 1103.09 -229.81 1093.89 1093.89 -229.81 1103.09 -220.62 -220.62 1103.09"/>
              <polygon class="cls-5" points="-294.16 1029.55 -303.35 1020.36 1020.36 -303.35 1029.55 -294.16 -294.16 1029.55"/>
              <polygon class="cls-5" points="-183.85 1139.86 -193.04 1130.66 1130.66 -193.04 1139.86 -183.85 -183.85 1139.86"/>
              <polygon class="cls-5" points="-275.77 1047.93 -284.96 1038.74 1038.74 -284.96 1047.93 -275.77 -275.77 1047.93"/>
              <polygon class="cls-5" points="-239 1084.7 -248.19 1075.51 1075.51 -248.19 1084.7 -239 -239 1084.7"/>
              <polygon class="cls-5" points="-257.39 1066.32 -266.58 1057.12 1057.12 -266.58 1066.32 -257.39 -257.39 1066.32"/>
              <polygon class="cls-5" points="-312.54 1011.16 -321.73 1001.97 1001.97 -321.73 1011.16 -312.54 -312.54 1011.16"/>
              <polygon class="cls-5" points="0 1323.7 -9.19 1314.51 1314.51 -9.19 1323.7 0 0 1323.7"/>
              <polygon class="cls-5" points="-36.77 1286.93 -45.96 1277.74 1277.74 -45.96 1286.93 -36.77 -36.77 1286.93"/>
              <polygon class="cls-5" points="-55.15 1268.55 -64.35 1259.36 1259.36 -64.35 1268.55 -55.15 -55.15 1268.55"/>
              <polygon class="cls-5" points="-128.69 1195.01 -137.89 1185.82 1185.82 -137.88 1195.01 -128.69 -128.69 1195.01"/>
              <polygon class="cls-5" points="-18.39 1305.32 -27.58 1296.13 1296.13 -27.58 1305.32 -18.38 -18.39 1305.32"/>
              <polygon class="cls-5" points="-110.31 1213.4 -119.5 1204.2 1204.2 -119.5 1213.4 -110.31 -110.31 1213.4"/>
              <polygon class="cls-5" points="-73.54 1250.16 -82.73 1240.97 1240.97 -82.73 1250.16 -73.54 -73.54 1250.16"/>
              <polygon class="cls-5" points="-91.92 1231.78 -101.12 1222.59 1222.59 -101.12 1231.78 -91.92 -91.92 1231.78"/>
              <polygon class="cls-5" points="-147.08 1176.63 -156.27 1167.43 1167.43 -156.27 1176.63 -147.08 -147.08 1176.63"/>
              <polygon class="cls-5" points="165.46 1489.17 156.27 1479.97 1479.97 156.27 1489.17 165.46 165.46 1489.17"/>
              <polygon class="cls-5" points="128.69 1452.4 119.5 1443.21 1443.21 119.5 1452.4 128.69 128.69 1452.4"/>
              <polygon class="cls-5" points="110.31 1434.01 101.12 1424.82 1424.82 101.12 1434.01 110.31 110.31 1434.01"/>
              <polygon class="cls-5" points="36.77 1360.47 27.58 1351.28 1351.28 27.58 1360.47 36.77 36.77 1360.47"/>
              <polygon class="cls-5" points="147.08 1470.78 137.89 1461.59 1461.59 137.89 1470.78 147.08 147.08 1470.78"/>
              <polygon class="cls-5" points="55.15 1378.86 45.96 1369.67 1369.67 45.96 1378.86 55.16 55.15 1378.86"/>
              <polygon class="cls-5" points="91.92 1415.63 82.73 1406.44 1406.44 82.73 1415.63 91.92 91.92 1415.63"/>
              <polygon class="cls-5" points="73.54 1397.24 64.35 1388.05 1388.05 64.35 1397.24 73.54 73.54 1397.24"/>
              <polygon class="cls-5" points="18.39 1342.09 9.19 1332.9 1332.9 9.19 1342.09 18.39 18.39 1342.09"/>
              <polygon class="cls-5" points="330.93 1654.63 321.73 1645.44 1645.44 321.73 1654.63 330.93 330.93 1654.63"/>
              <polygon class="cls-5" points="294.16 1617.86 284.96 1608.67 1608.67 284.97 1617.86 294.16 294.16 1617.86"/>
              <polygon class="cls-5" points="275.77 1599.48 266.58 1590.28 1590.28 266.58 1599.48 275.77 275.77 1599.48"/>
              <polygon class="cls-5" points="202.23 1525.94 193.04 1516.74 1516.74 193.04 1525.94 202.23 202.23 1525.94"/>
              <polygon class="cls-5" points="312.54 1636.25 303.35 1627.05 1627.05 303.35 1636.25 312.54 312.54 1636.25"/>
              <polygon class="cls-5" points="220.62 1544.32 211.43 1535.13 1535.13 211.43 1544.32 220.62 220.62 1544.32"/>
              <polygon class="cls-5" points="257.39 1581.09 248.19 1571.9 1571.9 248.2 1581.09 257.39 257.39 1581.09"/>
              <polygon class="cls-5" points="239 1562.71 229.81 1553.51 1553.51 229.81 1562.71 239 239 1562.71"/>
              <polygon class="cls-5" points="183.85 1507.55 174.66 1498.36 1498.36 174.66 1507.55 183.85 183.85 1507.55"/>
              <polygon class="cls-5" points="496.39 1820.09 487.2 1810.9 1810.9 487.2 1820.09 496.39 496.39 1820.09"/>
              <polygon class="cls-5" points="459.62 1783.32 450.43 1774.13 1774.13 450.43 1783.32 459.62 459.62 1783.32"/>
              <polygon class="cls-5" points="441.23 1764.94 432.04 1755.75 1755.75 432.04 1764.94 441.24 441.23 1764.94"/>
              <polygon class="cls-5" points="367.7 1691.4 358.5 1682.21 1682.21 358.5 1691.4 367.7 367.7 1691.4"/>
              <polygon class="cls-5" points="478 1801.71 468.81 1792.52 1792.52 468.81 1801.71 478.01 478 1801.71"/>
              <polygon class="cls-5" points="386.08 1709.78 376.89 1700.59 1700.59 376.89 1709.78 386.08 386.08 1709.78"/>
              <polygon class="cls-5" points="422.85 1746.55 413.66 1737.36 1737.36 413.66 1746.55 422.85 422.85 1746.55"/>
              <polygon class="cls-5" points="404.47 1728.17 395.27 1718.98 1718.98 395.27 1728.17 404.47 404.47 1728.17"/>
              <polygon class="cls-5" points="349.31 1673.01 340.12 1663.82 1663.82 340.12 1673.01 349.31 349.31 1673.01"/>
              <polygon class="cls-5" points="661.85 1985.56 652.66 1976.36 1976.36 652.66 1985.56 661.85 661.85 1985.56"/>
              <polygon class="cls-5" points="625.08 1948.79 615.89 1939.59 1939.59 615.89 1948.79 625.08 625.08 1948.79"/>
              <polygon class="cls-5" points="606.7 1930.4 597.51 1921.21 1921.21 597.51 1930.4 606.7 606.7 1930.4"/>
              <polygon class="cls-5" points="533.16 1856.86 523.97 1847.67 1847.67 523.97 1856.86 533.16 533.16 1856.86"/>
              <polygon class="cls-5" points="643.47 1967.17 634.27 1957.98 1957.98 634.28 1967.17 643.47 643.47 1967.17"/>
              <polygon class="cls-5" points="551.54 1875.25 542.35 1866.06 1866.05 542.35 1875.25 551.54 551.54 1875.25"/>
              <polygon class="cls-5" points="588.31 1912.02 579.12 1902.82 1902.82 579.12 1912.02 588.31 588.31 1912.02"/>
              <polygon class="cls-5" points="569.93 1893.63 560.74 1884.44 1884.44 560.74 1893.63 569.93 569.93 1893.63"/>
              <polygon class="cls-5" points="514.77 1838.48 505.58 1829.29 1829.29 505.58 1838.48 514.77 514.77 1838.48"/>
            </g>
            <polygon class="cls-10" points="505.58 1829.29 496.39 1820.09 1820.09 496.39 1829.29 505.58 505.58 1829.29"/>
          </g>
        </g>
      </g>
    </pattern>
  </defs>
  <g id="Q_A見出し" data-name="Q&amp;amp;A見出し">
    <g>
      <g class="cls-8">
        <g class="cls-7">
          <g class="cls-6">
            <polygon class="cls-2" points="-29 0 -29 144.27 563.58 144.27 614.34 144.27 640 167 665.66 144.27 687.42 144.27 1280 144.27 1280 0 -29 0"/>
          </g>
        </g>
      </g>
      <g class="cls-4">
        <g>
          <path class="cls-1" d="M614.51,109.09c-1.56,.08-3.24,.12-3.72,.12-4.68,0-10.6-1.52-11.24-7.76-8.36-1.48-12.36-8.64-12.36-16.28,0-9.56,6.16-16.32,15.6-16.32s15.6,6.84,15.6,16.32c0,7.84-4.2,15.16-13,16.4,.4,2.28,2.64,2.84,5.84,2.84,.68,0,2.32-.08,5-.28l-1.72,4.96Zm-2.44-24c0-5.28-2.84-11-9.28-11s-9.32,5.72-9.32,11c0,6.36,3.24,11.64,9.32,11.64s9.28-5.28,9.28-11.64Z"/>
          <path class="cls-1" d="M648.67,101.37c-1.12-1.28-2.24-2.52-3.36-3.72-1.4,1.28-5.12,4.4-9.92,4.4-5.28,0-9.6-3.72-9.6-8.52,0-3.16,1.88-6.72,6.56-9.88-2.88-3.44-3.44-5.52-3.44-7.32,0-4.32,3.56-7.44,8.24-7.44,5.52,0,8,3.84,8,6.92,0,4.52-3.6,7.08-5.68,8.48,1.76,1.92,3.68,3.96,5.64,6,1.32-1.88,2.56-4.2,3.48-6.96h5.72c-1.36,3.64-3.36,7.44-5.72,10.56,2.56,2.64,5.04,5.24,7.12,7.48h-7.04Zm-13.4-14.2c-2.72,2.16-4.04,4.24-4.04,6.08,0,1.96,1.36,3.96,4.36,3.96,1.56,0,3.32-.4,6.4-3.16-2.2-2.36-4.36-4.68-6.52-7.04l-.2,.16Zm1.72-6.64c1.8-1.32,3.2-2.4,3.2-4.6,0-1.72-1.48-2.72-2.96-2.72-1.88,0-3.2,1.28-3.2,3.16,0,1.76,1.2,3.28,2.4,4.56,.2-.12,.36-.28,.56-.4Z"/>
          <path class="cls-1" d="M672.31,69.22h6.08l12.32,32.15h-6.48l-3-8.12h-11.8l-2.96,8.12h-6.48l12.32-32.15Zm7.52,19l-3.12-8.68c-.36-.96-.96-2.76-1.4-4.24-.4,1.52-.92,3.04-1.36,4.24l-3.12,8.68h9Z"/>
        </g>
      </g>
      <g class="cls-4">
        <g>
          <path class="cls-1" d="M611.31,52.34c-.81-.98-2.37-1.84-3.39-2.22v.19c0,1.44-1.09,2.37-2.58,2.37-1.21,0-2.88-.66-2.88-1.89,0-.25,.13-1.8,3.15-1.8,.48,0,.97,.04,1.38,.12-.03-.57-.09-1.47-.14-2.45-.06-1.69-.01-3.6-.07-5.1,1.29,0,1.47,.13,1.47,.25,0,.1-.12,.21-.45,.27-.06,.73-.09,1.52-.1,2.32,.18,.03,.38,.04,.58,.04,1.09,0,2.49-.36,3.39-.64l.06,.92c-1,.3-2.38,.51-3.4,.51-.24,0-.45,0-.63-.03,0,.75,.03,1.88,.17,4.06,1.38,.39,3.25,1.33,4.3,2.34l-.85,.72Zm-5.77-2.59c-1.23,0-2.19,.38-2.19,1.03s1.12,1.08,1.98,1.08c1.04,0,1.73-.65,1.73-1.86v-.06c-.45-.12-.99-.19-1.52-.19Z"/>
          <path class="cls-1" d="M619.75,53.4c-.6-1.14-1.36-2.08-3.25-4.11l-1.26-1.29c-.33-.36-.46-.75-.46-1.14,0-.48,.21-.95,.57-1.33,.46-.51,1-.98,1.52-1.46,.42-.41,.97-.87,1.48-1.4,.36-.35,.81-.87,1.17-1.41,.04-.05,.06-.06,.07-.06,.03,0,.04,.02,.08,.05,0,0,.52,.58,.77,.84,.09,.1,.13,.19,.13,.27s-.06,.13-.17,.13c-.07,0-.18-.03-.29-.09-.12,.12-.61,.57-2.91,2.52-1.09,.94-1.5,1.4-1.5,1.89,0,.16,.04,.34,.17,.52,.23,.38,.94,.98,1.29,1.32,1.29,1.23,3.07,3.12,3.75,4.35l-1.16,.39Z"/>
          <path class="cls-1" d="M628.2,52.67c3.81-.27,5.71-2.13,5.71-4.08,0-1.3-.85-2.31-2.35-2.62-.68,1.58-1.83,3.09-3.08,4.31,.14,.34,.3,.67,.47,.96l-.89,.27c-.09-.18-.18-.38-.25-.6-1.74,1.52-2.43,1.59-2.7,1.59-.77,0-1.35-.79-1.35-1.77,0-1.86,2.13-3.73,3.6-4.62,.01-.27,.04-.56,.07-.85,.03-.39,.08-.79,.1-1.21-.38,.04-.78,.1-1.24,.1-.78,0-1.32-.18-1.74-.45l.02-.85c0-.08,.02-.12,.06-.12,.01,0,.03,0,.04,.02,.66,.42,1.19,.57,1.9,.57,.09,0,.62,0,1.02-.07,.04-.65,.08-1.32,.08-2,1.15,0,1.33,.14,1.33,.26,0,.1-.14,.22-.42,.28l-.15,1.35c1.48-.24,3.03-.65,4.41-1.08l.07,.88c-1.51,.39-3.07,.77-4.57,1.01,0,.03-.13,1.47-.18,1.86,.85-.35,1.7-.6,2.64-.6h.15c.03-.12,.04-.24,.08-.35,.06-.45,.09-.54,.09-.72,.85,.13,1.27,.25,1.27,.41,0,.07-.1,.15-.4,.18-.05,.2-.1,.38-.17,.57,1.08,.21,3.04,1.02,3.04,3.34,0,2.5-2.44,4.45-5.79,4.84l-.88-.79Zm-.89-3.73c-.03-.33-.04-.68-.04-1.02,0-.3,.02-.62,.03-.93-1.12,.73-2.69,2.39-2.69,3.66,0,.42,.18,.94,.61,.94,.53,0,1.62-.87,2.31-1.48-.1-.36-.18-.75-.23-1.17Zm3.41-3.06c-.08,.02-.17,.02-.26,.02-.87,.06-1.8,.44-2.35,.69-.03,.54-.04,1.05-.04,1.47,0,.78,.15,1.33,.17,1.4,1.04-1.06,2-2.35,2.49-3.57Z"/>
          <path class="cls-1" d="M637.24,49.32s-.06-.05-.06-.06c0-.03,.02-.06,.04-.09,.71-.65,1.33-1.17,1.74-1.53l.54-.5c1.21-1.09,4.26-4.17,4.26-4.32,0-.03-.03-.04-.06-.04s-.06,.02-.1,.03c-1.14,.48-2.64,.85-3.76,.85-.13,0-.27,0-.39-.01l-.34-.85s-.03-.06-.03-.09,.03-.04,.08-.04h.03c.35,.04,.68,.08,1.04,.08,1.27,0,2.58-.3,3.75-.69,.15-.04,.21-.14,.3-.14,.21,0,1.02,.66,1.02,.78s-.27,.17-.36,.25c-.81,.71-4.29,4.06-4.29,4.08h.02s.07-.03,.1-.05c1.17-.57,2.32-.66,2.88-.66,1.98,0,3.48,1.09,3.48,2.73,0,1.97-2.06,3.93-5.01,3.93-1.23,0-3.2-.52-3.2-1.88,0-.65,.54-1.36,1.8-1.36,1.02,0,2.34,.55,2.34,2.11l-.02,.23c2.21-.48,3.09-1.92,3.09-2.94,0-1.64-1.32-2.08-2.62-2.08-2.67,0-4.42,1.48-5.41,2.71l-.84-.45Zm4.89,2.46c0-.28-.06-1.36-1.48-1.36-.94,0-.94,.58-.94,.66,0,.57,.87,1.08,2.22,1.08h.18c.01-.13,.03-.25,.03-.38Z"/>
          <path class="cls-1" d="M649.09,53.36c2.69-.29,4.75-1.35,5.22-1.67,.25,.14,.84,.63,.84,.77,0,.07-.09,.12-.21,.12-.1,0-.24-.03-.36-.11,0,0-2.19,1.21-4.64,1.64l-.85-.75Zm.06-7.5c1.25-1.05,1.52-2.48,1.52-3.51,0-.54-.02-1.11-.03-1.27l.66,.15c2.29-.15,3.44-.49,3.67-.57,.14,.1,.68,.65,.68,.78,0,.07-.06,.12-.17,.12s-.24-.04-.39-.15c-.4,.08-1.88,.38-3.63,.5,0,.22,.02,.43,.02,.52l-.02,.31h4.2v.67h-1.78v1.46h-.81v-1.46h-1.68c-.13,.83-.48,1.86-1.26,2.71l-.98-.27Zm2.73-.53h8.46v6.29h-.83v-.42h-6.82v.47h-.81v-6.33Zm7.63,1.73v-1.04h-6.82v1.04h6.82Zm0,1.73v-1.08h-6.82v1.08h6.82Zm0,1.74v-1.1h-6.82v1.1h6.82Zm-4.41-5.64c1.09-.8,1.3-1.9,1.3-2.72,0-.43-.02-.9-.02-1.05l.69,.14c2.46-.14,3.72-.52,3.97-.6,.03,.02,.71,.65,.71,.81,0,.07-.06,.12-.17,.12-.09,0-.24-.06-.42-.18-.45,.09-2.08,.42-3.99,.52l.02,.3c0,.13-.02,.31-.03,.51h5.17v.67h-2.37v1.46h-.81v-1.46h-2.13c-.17,.57-.46,1.19-1.02,1.71l-.92-.24Zm2.46,6.88c.77,.35,2.71,1.1,5.33,1.32l-.72,.81c-2.12-.26-4.26-1.11-5.08-1.55l.48-.58Z"/>
          <path class="cls-1" d="M665.08,41.22h4.98v5.07h-.79v-.5h-3.34v8.23h-.84v-12.81Zm4.19,1.88v-1.21h-3.34v1.21h3.34Zm0,2.01v-1.32h-3.34v1.32h3.34Zm-.88,2.23h5.05v4.85h-.81v-.78h-3.45v.96h-.79v-5.02Zm4.24,3.3v-2.58h-3.45v2.58h3.45Zm.93,2.31c.42,.03,.93,.12,1.37,.12,.62,0,1.12-.17,1.12-.84v-6.44h-3.42v.48h-.79v-5.06h5.07v8.86s.03,1.8,.03,2.22c0,1.29-.93,1.61-2.14,1.61-.18,0-.36,0-.54-.02l-.69-.94Zm2.49-9.85v-1.21h-3.42v1.21h3.42Zm0,2.01v-1.32h-3.42v1.32h3.42Z"/>
        </g>
      </g>
    </g>
  </g>
</svg>