<?xml version="1.0" encoding="UTF-8"?>
<svg id="_レイヤー_2" data-name="レイヤー 2" xmlns="http://www.w3.org/2000/svg" xmlns:xlink="http://www.w3.org/1999/xlink" viewBox="0 0 1280 174.06">
  <defs>
    <style>
      .cls-1 {
        fill: #fff;
      }

      .cls-2 {
        fill: url(#_新規パターンスウォッチ_4);
      }

      .cls-3 {
        isolation: isolate;
      }

      .cls-4 {
        fill: #178de6;
      }

      .cls-5 {
        filter: url(#drop-shadow-1);
      }

      .cls-6 {
        clip-path: url(#clippath-1);
      }

      .cls-7 {
        clip-path: url(#clippath);
      }

      .cls-8 {
        fill: none;
      }

      .cls-9 {
        fill: #00a0e9;
      }
    </style>
    <clipPath id="clippath">
      <rect class="cls-8" width="1280" height="174.06"/>
    </clipPath>
    <filter id="drop-shadow-1" filterUnits="userSpaceOnUse">
      <feOffset dx="4.06" dy="4.06"/>
      <feGaussianBlur result="blur" stdDeviation="0"/>
      <feFlood flood-color="#0d1e42" flood-opacity=".5"/>
      <feComposite in2="blur" operator="in"/>
      <feComposite in="SourceGraphic"/>
    </filter>
    <clipPath id="clippath-1">
      <polygon class="cls-8" points="0 1323.7 0 0 1323.7 0 1323.7 1323.7 0 1323.7"/>
    </clipPath>
    <pattern id="_新規パターンスウォッチ_4" data-name="新規パターンスウォッチ 4" x="0" y="0" width="1323.7" height="1323.7" patternTransform="translate(6618.52 -2516.06)" patternUnits="userSpaceOnUse" viewBox="0 0 1323.7 1323.7">
      <g>
        <rect class="cls-8" x="0" width="1323.7" height="1323.7"/>
        <g class="cls-6">
          <g>
            <polygon class="cls-9" points="-634.27 689.43 -643.47 680.24 680.24 -643.47 689.43 -634.27 -634.27 689.43"/>
            <polygon class="cls-9" points="-542.35 781.35 -551.54 772.16 772.16 -551.54 781.35 -542.35 -542.35 781.35"/>
            <polygon class="cls-9" points="-505.58 818.12 -514.77 808.93 808.93 -514.77 818.12 -505.58 -505.58 818.12"/>
            <polygon class="cls-9" points="-523.97 799.74 -533.16 790.55 790.55 -533.16 799.74 -523.97 -523.97 799.74"/>
            <polygon class="cls-9" points="-579.12 744.58 -588.31 735.39 735.39 -588.31 744.58 -579.12 -579.12 744.58"/>
            <polygon class="cls-9" points="-615.89 707.81 -625.08 698.62 698.62 -625.08 707.81 -615.89 -615.89 707.81"/>
            <polygon class="cls-9" points="-597.51 726.2 -606.7 717.01 717.01 -606.7 726.2 -597.5 -597.51 726.2"/>
            <polygon class="cls-9" points="-560.74 762.97 -569.93 753.78 753.78 -569.93 762.97 -560.74 -560.74 762.97"/>
            <polygon class="cls-9" points="-652.66 671.04 -661.85 661.85 661.85 -661.85 671.04 -652.66 -652.66 671.04"/>
            <polygon class="cls-9" points="-468.81 854.89 -478 845.7 845.7 -478 854.89 -468.81 -468.81 854.89"/>
            <polygon class="cls-9" points="-376.89 946.82 -386.08 937.62 937.62 -386.08 946.82 -376.89 -376.89 946.82"/>
            <polygon class="cls-9" points="-340.12 983.59 -349.31 974.39 974.39 -349.31 983.59 -340.12 -340.12 983.59"/>
            <polygon class="cls-9" points="-358.5 965.2 -367.7 956.01 956.01 -367.69 965.2 -358.5 -358.5 965.2"/>
            <polygon class="cls-9" points="-413.66 910.05 -422.85 900.85 900.85 -422.85 910.05 -413.66 -413.66 910.05"/>
            <polygon class="cls-9" points="-450.43 873.28 -459.62 864.08 864.08 -459.62 873.28 -450.43 -450.43 873.28"/>
            <polygon class="cls-9" points="-432.04 891.66 -441.23 882.47 882.47 -441.23 891.66 -432.04 -432.04 891.66"/>
            <polygon class="cls-9" points="-395.27 928.43 -404.46 919.24 919.24 -404.46 928.43 -395.27 -395.27 928.43"/>
            <polygon class="cls-9" points="-487.2 836.51 -496.39 827.31 827.32 -496.39 836.51 -487.2 -487.2 836.51"/>
            <polygon class="cls-9" points="-303.35 1020.36 -312.54 1011.16 1011.16 -312.54 1020.36 -303.35 -303.35 1020.36"/>
            <polygon class="cls-9" points="-211.42 1112.28 -220.62 1103.09 1103.09 -220.62 1112.28 -211.42 -211.42 1112.28"/>
            <polygon class="cls-9" points="-174.66 1149.05 -183.85 1139.86 1139.86 -183.85 1149.05 -174.65 -174.66 1149.05"/>
            <polygon class="cls-9" points="-193.04 1130.66 -202.23 1121.47 1121.47 -202.23 1130.66 -193.04 -193.04 1130.66"/>
            <polygon class="cls-9" points="-248.19 1075.51 -257.39 1066.32 1066.32 -257.39 1075.51 -248.19 -248.19 1075.51"/>
            <polygon class="cls-9" points="-284.96 1038.74 -294.16 1029.55 1029.55 -294.16 1038.74 -284.96 -284.96 1038.74"/>
            <polygon class="cls-9" points="-266.58 1057.12 -275.77 1047.93 1047.93 -275.77 1057.12 -266.58 -266.58 1057.12"/>
            <polygon class="cls-9" points="-229.81 1093.89 -239 1084.7 1084.7 -239 1093.89 -229.81 -229.81 1093.89"/>
            <polygon class="cls-9" points="-321.73 1001.97 -330.93 992.78 992.78 -330.93 1001.97 -321.73 -321.73 1001.97"/>
            <polygon class="cls-9" points="-137.89 1185.82 -147.08 1176.63 1176.63 -147.08 1185.82 -137.88 -137.89 1185.82"/>
            <polygon class="cls-9" points="-45.96 1277.74 -55.15 1268.55 1268.55 -55.15 1277.74 -45.96 -45.96 1277.74"/>
            <polygon class="cls-9" points="-9.19 1314.51 -18.39 1305.32 1305.32 -18.38 1314.51 -9.19 -9.19 1314.51"/>
            <polygon class="cls-9" points="-27.58 1296.13 -36.77 1286.93 1286.93 -36.77 1296.13 -27.58 -27.58 1296.13"/>
            <polygon class="cls-9" points="-82.73 1240.97 -91.92 1231.78 1231.78 -91.92 1240.97 -82.73 -82.73 1240.97"/>
            <polygon class="cls-9" points="-119.5 1204.2 -128.69 1195.01 1195.01 -128.69 1204.2 -119.5 -119.5 1204.2"/>
            <polygon class="cls-9" points="-101.12 1222.59 -110.31 1213.4 1213.4 -110.31 1222.59 -101.12 -101.12 1222.59"/>
            <polygon class="cls-9" points="-64.35 1259.36 -73.54 1250.16 1250.16 -73.54 1259.36 -64.35 -64.35 1259.36"/>
            <polygon class="cls-9" points="-156.27 1167.43 -165.46 1158.24 1158.24 -165.46 1167.43 -156.27 -156.27 1167.43"/>
            <polygon class="cls-9" points="27.58 1351.28 18.39 1342.09 1342.09 18.39 1351.28 27.58 27.58 1351.28"/>
            <polygon class="cls-9" points="119.5 1443.2 110.31 1434.01 1434.01 110.31 1443.21 119.5 119.5 1443.2"/>
            <polygon class="cls-9" points="156.27 1479.97 147.08 1470.78 1470.78 147.08 1479.97 156.27 156.27 1479.97"/>
            <polygon class="cls-9" points="137.89 1461.59 128.69 1452.4 1452.4 128.69 1461.59 137.89 137.89 1461.59"/>
            <polygon class="cls-9" points="82.73 1406.44 73.54 1397.24 1397.24 73.54 1406.44 82.73 82.73 1406.44"/>
            <polygon class="cls-9" points="45.96 1369.67 36.77 1360.47 1360.47 36.77 1369.67 45.96 45.96 1369.67"/>
            <polygon class="cls-9" points="64.35 1388.05 55.15 1378.86 1378.86 55.16 1388.05 64.35 64.35 1388.05"/>
            <polygon class="cls-9" points="101.12 1424.82 91.92 1415.63 1415.63 91.92 1424.82 101.12 101.12 1424.82"/>
            <polygon class="cls-9" points="9.19 1332.9 0 1323.7 1323.7 0 1332.9 9.19 9.19 1332.9"/>
            <polygon class="cls-9" points="193.04 1516.74 183.85 1507.55 1507.55 183.85 1516.74 193.04 193.04 1516.74"/>
            <polygon class="cls-9" points="284.96 1608.67 275.77 1599.48 1599.48 275.77 1608.67 284.97 284.96 1608.67"/>
            <polygon class="cls-9" points="321.73 1645.44 312.54 1636.25 1636.25 312.54 1645.44 321.73 321.73 1645.44"/>
            <polygon class="cls-9" points="303.35 1627.05 294.16 1617.86 1617.86 294.16 1627.05 303.35 303.35 1627.05"/>
            <polygon class="cls-9" points="248.19 1571.9 239 1562.71 1562.71 239 1571.9 248.2 248.19 1571.9"/>
            <polygon class="cls-9" points="211.43 1535.13 202.23 1525.94 1525.94 202.23 1535.13 211.43 211.43 1535.13"/>
            <polygon class="cls-9" points="229.81 1553.51 220.62 1544.32 1544.32 220.62 1553.51 229.81 229.81 1553.51"/>
            <polygon class="cls-9" points="266.58 1590.28 257.39 1581.09 1581.09 257.39 1590.28 266.58 266.58 1590.28"/>
            <polygon class="cls-9" points="174.66 1498.36 165.46 1489.17 1489.17 165.46 1498.36 174.66 174.66 1498.36"/>
            <polygon class="cls-9" points="358.5 1682.21 349.31 1673.01 1673.01 349.31 1682.21 358.5 358.5 1682.21"/>
            <polygon class="cls-9" points="450.43 1774.13 441.23 1764.94 1764.94 441.24 1774.13 450.43 450.43 1774.13"/>
            <polygon class="cls-9" points="487.2 1810.9 478 1801.71 1801.71 478.01 1810.9 487.2 487.2 1810.9"/>
            <polygon class="cls-9" points="468.81 1792.52 459.62 1783.32 1783.32 459.62 1792.52 468.81 468.81 1792.52"/>
            <polygon class="cls-9" points="413.66 1737.36 404.47 1728.17 1728.17 404.47 1737.36 413.66 413.66 1737.36"/>
            <polygon class="cls-9" points="376.89 1700.59 367.7 1691.4 1691.4 367.7 1700.59 376.89 376.89 1700.59"/>
            <polygon class="cls-9" points="395.27 1718.98 386.08 1709.78 1709.78 386.08 1718.98 395.27 395.27 1718.98"/>
            <polygon class="cls-9" points="432.04 1755.75 422.85 1746.55 1746.55 422.85 1755.75 432.04 432.04 1755.75"/>
            <polygon class="cls-9" points="340.12 1663.82 330.93 1654.63 1654.63 330.93 1663.82 340.12 340.12 1663.82"/>
            <polygon class="cls-9" points="523.97 1847.67 514.77 1838.48 1838.48 514.78 1847.67 523.97 523.97 1847.67"/>
            <polygon class="cls-9" points="615.89 1939.59 606.7 1930.4 1930.4 606.7 1939.59 615.89 615.89 1939.59"/>
            <polygon class="cls-9" points="652.66 1976.36 643.47 1967.17 1967.17 643.47 1976.36 652.66 652.66 1976.36"/>
            <polygon class="cls-9" points="634.27 1957.98 625.08 1948.79 1948.79 625.08 1957.98 634.28 634.27 1957.98"/>
            <polygon class="cls-9" points="579.12 1902.82 569.93 1893.63 1893.63 569.93 1902.82 579.12 579.12 1902.82"/>
            <polygon class="cls-9" points="542.35 1866.06 533.16 1856.86 1856.86 533.16 1866.05 542.35 542.35 1866.06"/>
            <polygon class="cls-9" points="560.74 1884.44 551.54 1875.25 1875.25 551.54 1884.44 560.74 560.74 1884.44"/>
            <polygon class="cls-9" points="597.51 1921.21 588.31 1912.02 1912.02 588.31 1921.21 597.51 597.51 1921.21"/>
            <g>
              <polygon class="cls-4" points="-496.39 827.31 -505.58 818.12 818.12 -505.58 827.32 -496.39 -496.39 827.31"/>
              <polygon class="cls-4" points="-533.16 790.55 -542.35 781.35 781.35 -542.35 790.55 -533.16 -533.16 790.55"/>
              <polygon class="cls-4" points="-551.54 772.16 -560.74 762.97 762.97 -560.73 772.16 -551.54 -551.54 772.16"/>
              <polygon class="cls-4" points="-625.08 698.62 -634.27 689.43 689.43 -634.27 698.62 -625.08 -625.08 698.62"/>
              <polygon class="cls-4" points="-514.77 808.93 -523.97 799.74 799.74 -523.97 808.93 -514.77 -514.77 808.93"/>
              <polygon class="cls-4" points="-606.7 717.01 -615.89 707.81 707.81 -615.89 717.01 -606.7 -606.7 717.01"/>
              <polygon class="cls-4" points="-569.93 753.78 -579.12 744.58 744.58 -579.12 753.78 -569.93 -569.93 753.78"/>
              <polygon class="cls-4" points="-588.31 735.39 -597.5 726.2 726.2 -597.5 735.39 -588.31 -588.31 735.39"/>
              <polygon class="cls-4" points="-643.47 680.24 -652.66 671.04 671.04 -652.66 680.24 -643.47 -643.47 680.24"/>
              <polygon class="cls-4" points="-330.93 992.78 -340.12 983.59 983.59 -340.12 992.78 -330.93 -330.93 992.78"/>
              <polygon class="cls-4" points="-367.7 956.01 -376.89 946.82 946.82 -376.89 956.01 -367.69 -367.7 956.01"/>
              <polygon class="cls-4" points="-386.08 937.62 -395.27 928.43 928.43 -395.27 937.62 -386.08 -386.08 937.62"/>
              <polygon class="cls-4" points="-459.62 864.08 -468.81 854.89 854.89 -468.81 864.08 -459.62 -459.62 864.08"/>
              <polygon class="cls-4" points="-349.31 974.39 -358.5 965.2 965.2 -358.5 974.39 -349.31 -349.31 974.39"/>
              <polygon class="cls-4" points="-441.23 882.47 -450.43 873.28 873.28 -450.43 882.47 -441.23 -441.23 882.47"/>
              <polygon class="cls-4" points="-404.46 919.24 -413.66 910.05 910.05 -413.66 919.24 -404.46 -404.46 919.24"/>
              <polygon class="cls-4" points="-422.85 900.85 -432.04 891.66 891.66 -432.04 900.85 -422.85 -422.85 900.85"/>
              <polygon class="cls-4" points="-478 845.7 -487.2 836.51 836.51 -487.2 845.7 -478 -478 845.7"/>
              <polygon class="cls-4" points="-165.46 1158.24 -174.66 1149.05 1149.05 -174.65 1158.24 -165.46 -165.46 1158.24"/>
              <polygon class="cls-4" points="-202.23 1121.47 -211.42 1112.28 1112.28 -211.42 1121.47 -202.23 -202.23 1121.47"/>
              <polygon class="cls-4" points="-220.62 1103.09 -229.81 1093.89 1093.89 -229.81 1103.09 -220.62 -220.62 1103.09"/>
              <polygon class="cls-4" points="-294.16 1029.55 -303.35 1020.36 1020.36 -303.35 1029.55 -294.16 -294.16 1029.55"/>
              <polygon class="cls-4" points="-183.85 1139.86 -193.04 1130.66 1130.66 -193.04 1139.86 -183.85 -183.85 1139.86"/>
              <polygon class="cls-4" points="-275.77 1047.93 -284.96 1038.74 1038.74 -284.96 1047.93 -275.77 -275.77 1047.93"/>
              <polygon class="cls-4" points="-239 1084.7 -248.19 1075.51 1075.51 -248.19 1084.7 -239 -239 1084.7"/>
              <polygon class="cls-4" points="-257.39 1066.32 -266.58 1057.12 1057.12 -266.58 1066.32 -257.39 -257.39 1066.32"/>
              <polygon class="cls-4" points="-312.54 1011.16 -321.73 1001.97 1001.97 -321.73 1011.16 -312.54 -312.54 1011.16"/>
              <polygon class="cls-4" points="0 1323.7 -9.19 1314.51 1314.51 -9.19 1323.7 0 0 1323.7"/>
              <polygon class="cls-4" points="-36.77 1286.93 -45.96 1277.74 1277.74 -45.96 1286.93 -36.77 -36.77 1286.93"/>
              <polygon class="cls-4" points="-55.15 1268.55 -64.35 1259.36 1259.36 -64.35 1268.55 -55.15 -55.15 1268.55"/>
              <polygon class="cls-4" points="-128.69 1195.01 -137.89 1185.82 1185.82 -137.88 1195.01 -128.69 -128.69 1195.01"/>
              <polygon class="cls-4" points="-18.39 1305.32 -27.58 1296.13 1296.13 -27.58 1305.32 -18.38 -18.39 1305.32"/>
              <polygon class="cls-4" points="-110.31 1213.4 -119.5 1204.2 1204.2 -119.5 1213.4 -110.31 -110.31 1213.4"/>
              <polygon class="cls-4" points="-73.54 1250.16 -82.73 1240.97 1240.97 -82.73 1250.16 -73.54 -73.54 1250.16"/>
              <polygon class="cls-4" points="-91.92 1231.78 -101.12 1222.59 1222.59 -101.12 1231.78 -91.92 -91.92 1231.78"/>
              <polygon class="cls-4" points="-147.08 1176.63 -156.27 1167.43 1167.43 -156.27 1176.63 -147.08 -147.08 1176.63"/>
              <polygon class="cls-4" points="165.46 1489.17 156.27 1479.97 1479.97 156.27 1489.17 165.46 165.46 1489.17"/>
              <polygon class="cls-4" points="128.69 1452.4 119.5 1443.21 1443.21 119.5 1452.4 128.69 128.69 1452.4"/>
              <polygon class="cls-4" points="110.31 1434.01 101.12 1424.82 1424.82 101.12 1434.01 110.31 110.31 1434.01"/>
              <polygon class="cls-4" points="36.77 1360.47 27.58 1351.28 1351.28 27.58 1360.47 36.77 36.77 1360.47"/>
              <polygon class="cls-4" points="147.08 1470.78 137.89 1461.59 1461.59 137.89 1470.78 147.08 147.08 1470.78"/>
              <polygon class="cls-4" points="55.15 1378.86 45.96 1369.67 1369.67 45.96 1378.86 55.16 55.15 1378.86"/>
              <polygon class="cls-4" points="91.92 1415.63 82.73 1406.44 1406.44 82.73 1415.63 91.92 91.92 1415.63"/>
              <polygon class="cls-4" points="73.54 1397.24 64.35 1388.05 1388.05 64.35 1397.24 73.54 73.54 1397.24"/>
              <polygon class="cls-4" points="18.39 1342.09 9.19 1332.9 1332.9 9.19 1342.09 18.39 18.39 1342.09"/>
              <polygon class="cls-4" points="330.93 1654.63 321.73 1645.44 1645.44 321.73 1654.63 330.93 330.93 1654.63"/>
              <polygon class="cls-4" points="294.16 1617.86 284.96 1608.67 1608.67 284.97 1617.86 294.16 294.16 1617.86"/>
              <polygon class="cls-4" points="275.77 1599.48 266.58 1590.28 1590.28 266.58 1599.48 275.77 275.77 1599.48"/>
              <polygon class="cls-4" points="202.23 1525.94 193.04 1516.74 1516.74 193.04 1525.94 202.23 202.23 1525.94"/>
              <polygon class="cls-4" points="312.54 1636.25 303.35 1627.05 1627.05 303.35 1636.25 312.54 312.54 1636.25"/>
              <polygon class="cls-4" points="220.62 1544.32 211.43 1535.13 1535.13 211.43 1544.32 220.62 220.62 1544.32"/>
              <polygon class="cls-4" points="257.39 1581.09 248.19 1571.9 1571.9 248.2 1581.09 257.39 257.39 1581.09"/>
              <polygon class="cls-4" points="239 1562.71 229.81 1553.51 1553.51 229.81 1562.71 239 239 1562.71"/>
              <polygon class="cls-4" points="183.85 1507.55 174.66 1498.36 1498.36 174.66 1507.55 183.85 183.85 1507.55"/>
              <polygon class="cls-4" points="496.39 1820.09 487.2 1810.9 1810.9 487.2 1820.09 496.39 496.39 1820.09"/>
              <polygon class="cls-4" points="459.62 1783.32 450.43 1774.13 1774.13 450.43 1783.32 459.62 459.62 1783.32"/>
              <polygon class="cls-4" points="441.23 1764.94 432.04 1755.75 1755.75 432.04 1764.94 441.24 441.23 1764.94"/>
              <polygon class="cls-4" points="367.7 1691.4 358.5 1682.21 1682.21 358.5 1691.4 367.7 367.7 1691.4"/>
              <polygon class="cls-4" points="478 1801.71 468.81 1792.52 1792.52 468.81 1801.71 478.01 478 1801.71"/>
              <polygon class="cls-4" points="386.08 1709.78 376.89 1700.59 1700.59 376.89 1709.78 386.08 386.08 1709.78"/>
              <polygon class="cls-4" points="422.85 1746.55 413.66 1737.36 1737.36 413.66 1746.55 422.85 422.85 1746.55"/>
              <polygon class="cls-4" points="404.47 1728.17 395.27 1718.98 1718.98 395.27 1728.17 404.47 404.47 1728.17"/>
              <polygon class="cls-4" points="349.31 1673.01 340.12 1663.82 1663.82 340.12 1673.01 349.31 349.31 1673.01"/>
              <polygon class="cls-4" points="661.85 1985.56 652.66 1976.36 1976.36 652.66 1985.56 661.85 661.85 1985.56"/>
              <polygon class="cls-4" points="625.08 1948.79 615.89 1939.59 1939.59 615.89 1948.79 625.08 625.08 1948.79"/>
              <polygon class="cls-4" points="606.7 1930.4 597.51 1921.21 1921.21 597.51 1930.4 606.7 606.7 1930.4"/>
              <polygon class="cls-4" points="533.16 1856.86 523.97 1847.67 1847.67 523.97 1856.86 533.16 533.16 1856.86"/>
              <polygon class="cls-4" points="643.47 1967.17 634.27 1957.98 1957.98 634.28 1967.17 643.47 643.47 1967.17"/>
              <polygon class="cls-4" points="551.54 1875.25 542.35 1866.06 1866.05 542.35 1875.25 551.54 551.54 1875.25"/>
              <polygon class="cls-4" points="588.31 1912.02 579.12 1902.82 1902.82 579.12 1912.02 588.31 588.31 1912.02"/>
              <polygon class="cls-4" points="569.93 1893.63 560.74 1884.44 1884.44 560.74 1893.63 569.93 569.93 1893.63"/>
              <polygon class="cls-4" points="514.77 1838.48 505.58 1829.29 1829.29 505.58 1838.48 514.77 514.77 1838.48"/>
            </g>
            <polygon class="cls-9" points="505.58 1829.29 496.39 1820.09 1820.09 496.39 1829.29 505.58 505.58 1829.29"/>
          </g>
        </g>
      </g>
    </pattern>
  </defs>
  <g id="_コンタクト見出し" data-name="コンタクト見出し">
    <g>
      <g class="cls-7">
        <g class="cls-5">
          <polygon class="cls-2" points="-29 0 -29 144.27 563.58 144.27 614.34 144.27 640 167 665.66 144.27 687.42 144.27 1280 144.27 1280 0 -29 0"/>
        </g>
      </g>
      <g class="cls-3">
        <g>
          <path class="cls-1" d="M549.96,94.42c-1.56,9.12-8.12,11.68-14.28,11.68-10.4,0-15.56-7.8-15.56-16.36,0-8,5.04-16.72,15.48-16.72,6.32,0,13.2,3.6,14.12,11.44h-6.4c-.76-4.28-4.08-6.16-7.6-6.16-5.88,0-9.32,5.2-9.32,11.36s3.16,10.96,9.24,10.96c1.76,0,6.64-.16,7.88-6.2h6.44Z"/>
          <path class="cls-1" d="M557.13,89.42c0-9.64,6.16-16.44,15.6-16.44s15.6,6.88,15.6,16.44c0,8.64-5,16.72-15.6,16.72s-15.6-8.08-15.6-16.72Zm24.88-.2c0-5.28-2.84-11-9.28-11s-9.32,5.72-9.32,11c0,6.4,3.24,11.64,9.32,11.64s9.28-5.24,9.28-11.64Z"/>
          <path class="cls-1" d="M597.13,73.66h7.28l10.6,18.36c.72,1.24,2.16,4.12,2.96,5.8-.08-.56-.24-5.92-.24-7l-.12-17.16h5.84v31.79h-6.68l-11.28-19.88c-.56-.96-2.04-4-2.88-5.84,.04,.52,.2,6.08,.2,7.04l.12,18.68h-5.8v-31.79Z"/>
          <path class="cls-1" d="M641.81,78.9h-10.44v-5.24h27.12v5.24h-10.48v26.56h-6.2v-26.56Z"/>
          <path class="cls-1" d="M672.49,73.34h6.08l12.32,32.15h-6.48l-3-8.12h-11.8l-2.96,8.12h-6.48l12.32-32.15Zm7.52,19l-3.12-8.68c-.36-.96-.96-2.76-1.4-4.24-.4,1.52-.92,3.04-1.36,4.24l-3.12,8.68h9Z"/>
          <path class="cls-1" d="M725.84,94.42c-1.56,9.12-8.12,11.68-14.28,11.68-10.4,0-15.56-7.8-15.56-16.36,0-8,5.04-16.72,15.48-16.72,6.32,0,13.2,3.6,14.12,11.44h-6.4c-.76-4.28-4.08-6.16-7.6-6.16-5.88,0-9.32,5.2-9.32,11.36s3.16,10.96,9.24,10.96c1.76,0,6.64-.16,7.88-6.2h6.44Z"/>
          <path class="cls-1" d="M742.53,78.9h-10.44v-5.24h27.12v5.24h-10.48v26.56h-6.2v-26.56Z"/>
        </g>
      </g>
      <g class="cls-3">
        <g>
          <path class="cls-1" d="M594.75,56.85h-1.68v-.65h-8.19v-1.63h8.19v-5.29h-8.11v-1.6h9.79v9.18Z"/>
          <path class="cls-1" d="M601.11,50.49s-.06,.06-.09,.06-.04-.01-.08-.04c-.9-1.3-2.2-2.28-3.37-2.94l1.14-1.09c1.27,.6,2.8,1.69,3.55,2.69l-1.16,1.33Zm-1.83,6.78c-.27,0-1.67-1.72-1.67-1.81,0-.03,.03-.06,.12-.08,5.83-.85,9.58-5.88,10.45-7.12,0,0,.43,1.44,.66,1.85,.01,.03,.03,.06,.03,.09,0,.02-.02,.04-.05,.08-2.58,3.12-5.46,5.31-9.34,6.58-.02,.26-.09,.42-.21,.42Z"/>
          <path class="cls-1" d="M615.98,48.42c-1.29,1.68-2.65,2.83-3.87,3.65-.02,.02-.08,.02-.11,.02h-.04c-.39-.35-1.48-.85-1.48-.85,2.7-1.5,4.72-3.9,5.64-6,1.81,.54,1.89,.56,1.89,.72,0,.1-.2,.18-.42,.18h-.11c-.18,.33-.38,.66-.57,.96,1.57,0,3.54-.01,3.58-.03,.13-.02,.17-.1,.25-.1,.22,0,1.26,.79,1.26,.99,0,.1-.13,.18-.33,.23-1.77,3.79-4.42,7.8-9.45,9.27-.02,0-.04,.02-.06,.02-.04,0-.08-.02-.1-.04-.33-.39-1.5-1.15-1.5-1.15,2.73-.6,4.72-1.85,6.21-3.35-.74-.73-1.56-1.29-2.52-1.78l1.07-1.05c.61,.29,1.68,.83,2.56,1.55,.78-1.04,1.38-2.13,1.88-3.2h-3.78Z"/>
          <path class="cls-1" d="M628.16,48.54c-2.02,2.58-3.94,3.73-4,3.73-.01,0-.04-.02-.07-.04-.44-.36-1.53-.84-1.53-.84,2.8-1.54,4.51-3.69,5.64-6.02,.38,.11,1.41,.35,1.7,.45,.21,.08,.28,.15,.28,.21,0,.12-.24,.21-.46,.21-.18,.31-.38,.63-.57,.93,1.53-.02,3.34-.04,3.39-.04,.13-.02,.18-.14,.3-.14,.22,0,1.28,.79,1.28,1,0,.12-.12,.2-.35,.24-2.17,4.27-4.47,7.62-9.16,9.21-.03,.02-.06,.02-.08,.02-.03,0-.04,0-.08-.03-.38-.42-1.62-1.18-1.62-1.18,4.7-1.32,7.02-4.02,8.89-7.75l-3.55,.04Z"/>
          <path class="cls-1" d="M643.02,53s-.04,.04-.06,.04c-.03,0-.04-.02-.08-.03-1.38-.97-2.92-1.71-4.32-2.22v6.94h-1.68v-10.59s0-1.06-.04-1.66c1.75,.07,2.22,.1,2.22,.31,0,.1-.14,.24-.45,.3-.04,.5-.04,1.08-.04,1.08v1.95c1.68,.54,4.11,1.48,5.58,2.33l-1.12,1.54Z"/>
          <path class="cls-1" d="M646.24,48.14v-1.6l8.74-.04c.2,0,.24-.12,.36-.12,.19,0,1.29,.92,1.29,1.06,0,.09-.11,.17-.33,.24-1.42,5.6-4.54,8.17-7.81,9.52-.05,.02-.08,.03-.11,.03-.04,0-.08-.03-.12-.07-.34-.44-1.71-1.31-1.71-1.31,4.26-1.09,6.87-4.08,7.77-7.75l-8.08,.04Z"/>
          <path class="cls-1" d="M666.71,51.51h-2.16l.03,3.21c0,.57,.03,1.04,.03,1.14v.07c0,1.65-1.46,1.85-2.7,1.85h-.18c-.06,0-.09-.04-.11-.1-.1-.36-.79-1.26-.91-1.42,.34,.03,.91,.15,1.41,.15,.96,0,1.05-.45,1.05-.71,0,0,0-1.41-.01-3.1-1.05,1.47-2.66,2.94-4.38,4.09-.01,.02-.03,.03-.04,.03s-.03,.02-.04,.02-.03-.02-.04-.02v-.03s-.04-.01-.04-.01c-.29-.29-1.21-.83-1.44-.92,2.33-.89,4.12-2.65,5.19-4.25h-4.17v-1.3h4.96v-.62c0-.33-.02-.63-.08-1.2,1.49,.04,1.89,.08,1.89,.29,0,.18-.25,.28-.4,.33-.02,.29-.02,.6-.02,.6v.6h2.17v1.3Z"/>
          <path class="cls-1" d="M680.24,52.23h-11.55v-1.62h11.55v1.62Z"/>
          <path class="cls-1" d="M691.61,56.78s-.04,.03-.06,.03c-.03,0-.05-.02-.08-.07-.24-.56-.48-1.06-.74-1.56-1.75,.36-5.67,1-8.53,1.41v.03c0,.27-.11,.46-.23,.46-.08,0-.17-.09-.24-.3-.21-.57-.57-1.77-.57-1.77,.48-.03,1-.08,1.54-.14,1.2-2.7,2.25-5.76,3.09-9.04,0,0,1.14,.3,1.81,.54,.2,.08,.29,.15,.29,.24,0,.12-.21,.23-.5,.23h-.03c-.77,2.43-1.77,5.35-2.91,7.83,1.95-.27,3.97-.6,5.47-.88-.6-.94-1.3-1.86-2.26-2.86l1.33-.74c1.54,1.5,3.36,4.11,3.99,5.69l-1.39,.92Z"/>
        </g>
      </g>
    </g>
  </g>
</svg>