<svg id="レイヤー_1" data-name="レイヤー 1" xmlns="http://www.w3.org/2000/svg" xmlns:xlink="http://www.w3.org/1999/xlink" viewBox="0 0 53.58 53.58"><defs><style>.cls-1{fill:none;}.cls-2{clip-path:url(#clip-path);}.cls-3{fill:#00a0e9;}.cls-4{fill:#178de6;}.cls-5{clip-path:url(#clip-path-2);}.cls-10,.cls-6{fill:#fff;}.cls-7{clip-path:url(#clip-path-4);}.cls-8{fill:url(#Unnamed_Pattern_12);}.cls-9{clip-path:url(#clip-path-5);}.cls-10{fill-rule:evenodd;}</style><clipPath id="clip-path"><rect class="cls-1" width="1323.7" height="1323.7"/></clipPath><clipPath id="clip-path-2"><rect class="cls-1" width="53.58" height="53.58"/></clipPath><clipPath id="clip-path-4"><rect class="cls-1" x="1.92" y="1.92" width="49.73" height="49.73" rx="7.4"/></clipPath><pattern id="Unnamed_Pattern_12" data-name="Unnamed Pattern 12" width="1323.7" height="1323.7" patternTransform="translate(7398.68 7836.13) scale(0.07)" patternUnits="userSpaceOnUse" viewBox="0 0 1323.7 1323.7"><rect class="cls-1" width="1323.7" height="1323.7"/><g class="cls-2"><polygon class="cls-3" points="-634.27 689.42 -643.47 680.23 680.24 -643.47 689.43 -634.28 -634.27 689.42"/><polygon class="cls-3" points="-542.35 781.35 -551.54 772.16 772.16 -551.55 781.35 -542.36 -542.35 781.35"/><polygon class="cls-3" points="-505.58 818.12 -514.77 808.93 808.93 -514.78 818.12 -505.58 -505.58 818.12"/><polygon class="cls-3" points="-523.97 799.73 -533.16 790.54 790.55 -533.16 799.74 -523.97 -523.97 799.73"/><polygon class="cls-3" points="-579.12 744.58 -588.31 735.39 735.39 -588.32 744.58 -579.12 -579.12 744.58"/><polygon class="cls-3" points="-615.89 707.81 -625.08 698.62 698.62 -625.09 707.81 -615.89 -615.89 707.81"/><polygon class="cls-3" points="-597.5 726.19 -606.7 717 717.01 -606.7 726.2 -597.51 -597.5 726.19"/><polygon class="cls-3" points="-560.74 762.96 -569.93 753.77 753.78 -569.93 762.97 -560.74 -560.74 762.96"/><polygon class="cls-3" points="-652.66 671.04 -661.85 661.85 661.85 -661.86 671.04 -652.66 -652.66 671.04"/><polygon class="cls-3" points="-468.81 854.89 -478 845.7 845.7 -478.01 854.89 -468.81 -468.81 854.89"/><polygon class="cls-3" points="-376.89 946.81 -386.08 937.62 937.62 -386.08 946.82 -376.89 -376.89 946.81"/><polygon class="cls-3" points="-340.12 983.58 -349.31 974.39 974.39 -349.31 983.59 -340.12 -340.12 983.58"/><polygon class="cls-3" points="-358.5 965.2 -367.69 956 956.01 -367.7 965.2 -358.51 -358.5 965.2"/><polygon class="cls-3" points="-413.66 910.04 -422.85 900.85 900.86 -422.85 910.05 -413.66 -413.66 910.04"/><polygon class="cls-3" points="-450.43 873.27 -459.62 864.08 864.09 -459.62 873.28 -450.43 -450.43 873.27"/><polygon class="cls-3" points="-432.04 891.66 -441.23 882.47 882.47 -441.24 891.66 -432.05 -432.04 891.66"/><polygon class="cls-3" points="-395.27 928.43 -404.46 919.24 919.24 -404.47 928.43 -395.28 -395.27 928.43"/><polygon class="cls-3" points="-487.2 836.5 -496.39 827.31 827.32 -496.39 836.51 -487.2 -487.2 836.5"/><polygon class="cls-3" points="-303.35 1020.35 -312.54 1011.16 1011.16 -312.54 1020.36 -303.35 -303.35 1020.35"/><polygon class="cls-3" points="-211.43 1112.28 -220.62 1103.08 1103.09 -220.62 1112.28 -211.43 -211.43 1112.28"/><polygon class="cls-3" points="-174.66 1149.04 -183.85 1139.85 1139.86 -183.85 1149.05 -174.66 -174.66 1149.04"/><polygon class="cls-3" points="-193.04 1130.66 -202.23 1121.47 1121.47 -202.24 1130.66 -193.04 -193.04 1130.66"/><polygon class="cls-3" points="-248.19 1075.51 -257.39 1066.31 1066.32 -257.39 1075.51 -248.2 -248.19 1075.51"/><polygon class="cls-3" points="-284.96 1038.73 -294.16 1029.54 1029.55 -294.16 1038.74 -284.97 -284.96 1038.73"/><polygon class="cls-3" points="-266.58 1057.12 -275.77 1047.93 1047.93 -275.78 1057.13 -266.58 -266.58 1057.12"/><polygon class="cls-3" points="-229.81 1093.89 -239 1084.7 1084.7 -239 1093.89 -229.81 -229.81 1093.89"/><polygon class="cls-3" points="-321.73 1001.97 -330.93 992.77 992.78 -330.93 1001.97 -321.74 -321.73 1001.97"/><polygon class="cls-3" points="-137.89 1185.81 -147.08 1176.62 1176.63 -147.08 1185.82 -137.89 -137.89 1185.81"/><polygon class="cls-3" points="-45.96 1277.74 -55.15 1268.55 1268.55 -55.16 1277.74 -45.97 -45.96 1277.74"/><polygon class="cls-3" points="-9.19 1314.51 -18.39 1305.32 1305.32 -18.39 1314.51 -9.2 -9.19 1314.51"/><polygon class="cls-3" points="-27.58 1296.12 -36.77 1286.93 1286.93 -36.77 1296.13 -27.58 -27.58 1296.12"/><polygon class="cls-3" points="-82.73 1240.97 -91.92 1231.78 1231.78 -91.93 1240.97 -82.73 -82.73 1240.97"/><polygon class="cls-3" points="-119.5 1204.2 -128.69 1195.01 1195.01 -128.7 1204.2 -119.5 -119.5 1204.2"/><polygon class="cls-3" points="-101.12 1222.58 -110.31 1213.39 1213.39 -110.31 1222.59 -101.12 -101.12 1222.58"/><polygon class="cls-3" points="-64.35 1259.35 -73.54 1250.16 1250.16 -73.54 1259.36 -64.35 -64.35 1259.35"/><polygon class="cls-3" points="-156.27 1167.43 -165.46 1158.24 1158.24 -165.47 1167.43 -156.27 -156.27 1167.43"/><polygon class="cls-3" points="27.58 1351.28 18.39 1342.09 1342.09 18.38 1351.28 27.57 27.58 1351.28"/><polygon class="cls-3" points="119.5 1443.2 110.31 1434.01 1434.01 110.31 1443.21 119.5 119.5 1443.2"/><polygon class="cls-3" points="156.27 1479.97 147.08 1470.78 1470.78 147.07 1479.97 156.27 156.27 1479.97"/><polygon class="cls-3" points="137.89 1461.59 128.69 1452.39 1452.4 128.69 1461.59 137.88 137.89 1461.59"/><polygon class="cls-3" points="82.73 1406.43 73.54 1397.24 1397.24 73.54 1406.44 82.73 82.73 1406.43"/><polygon class="cls-3" points="45.96 1369.66 36.77 1360.47 1360.47 36.77 1369.67 45.96 45.96 1369.66"/><polygon class="cls-3" points="64.35 1388.05 55.16 1378.85 1378.86 55.15 1388.05 64.34 64.35 1388.05"/><polygon class="cls-3" points="101.12 1424.82 91.92 1415.62 1415.63 91.92 1424.82 101.11 101.12 1424.82"/><polygon class="cls-3" points="9.19 1332.89 0 1323.7 1323.7 0 1332.9 9.19 9.19 1332.89"/><polygon class="cls-3" points="193.04 1516.74 183.85 1507.55 1507.55 183.84 1516.74 193.04 193.04 1516.74"/><polygon class="cls-3" points="284.96 1608.66 275.77 1599.47 1599.48 275.77 1608.67 284.96 284.96 1608.66"/><polygon class="cls-3" points="321.73 1645.43 312.54 1636.24 1636.25 312.54 1645.44 321.73 321.73 1645.43"/><polygon class="cls-3" points="303.35 1627.05 294.16 1617.86 1617.86 294.15 1627.05 303.35 303.35 1627.05"/><polygon class="cls-3" points="248.19 1571.89 239 1562.7 1562.71 239 1571.9 248.19 248.19 1571.89"/><polygon class="cls-3" points="211.43 1535.13 202.23 1525.93 1525.94 202.23 1535.13 211.42 211.43 1535.13"/><polygon class="cls-3" points="229.81 1553.51 220.62 1544.32 1544.32 220.61 1553.51 229.81 229.81 1553.51"/><polygon class="cls-3" points="266.58 1590.28 257.39 1581.09 1581.09 257.38 1590.28 266.58 266.58 1590.28"/><polygon class="cls-3" points="174.66 1498.36 165.46 1489.16 1489.17 165.46 1498.36 174.65 174.66 1498.36"/><polygon class="cls-3" points="358.5 1682.2 349.31 1673.01 1673.02 349.31 1682.21 358.5 358.5 1682.2"/><polygon class="cls-3" points="450.43 1774.13 441.24 1764.93 1764.94 441.23 1774.13 450.42 450.43 1774.13"/><polygon class="cls-3" points="487.2 1810.9 478 1801.7 1801.71 478 1810.9 487.19 487.2 1810.9"/><polygon class="cls-3" points="468.81 1792.51 459.62 1783.32 1783.32 459.62 1792.52 468.81 468.81 1792.51"/><polygon class="cls-3" points="413.66 1737.36 404.47 1728.16 1728.17 404.46 1737.36 413.65 413.66 1737.36"/><polygon class="cls-3" points="376.89 1700.59 367.7 1691.4 1691.4 367.69 1700.59 376.88 376.89 1700.59"/><polygon class="cls-3" points="395.27 1718.97 386.08 1709.78 1709.79 386.08 1718.98 395.27 395.27 1718.97"/><polygon class="cls-3" points="432.04 1755.74 422.85 1746.55 1746.55 422.85 1755.75 432.04 432.04 1755.74"/><polygon class="cls-3" points="340.12 1663.82 330.93 1654.63 1654.63 330.92 1663.82 340.12 340.12 1663.82"/><polygon class="cls-3" points="523.97 1847.67 514.77 1838.47 1838.48 514.77 1847.67 523.96 523.97 1847.67"/><polygon class="cls-3" points="615.89 1939.59 606.7 1930.4 1930.4 606.7 1939.59 615.89 615.89 1939.59"/><polygon class="cls-3" points="652.66 1976.36 643.47 1967.17 1967.17 643.47 1976.36 652.66 652.66 1976.36"/><polygon class="cls-3" points="634.27 1957.97 625.08 1948.78 1948.79 625.08 1957.98 634.27 634.27 1957.97"/><polygon class="cls-3" points="579.12 1902.82 569.93 1893.63 1893.63 569.92 1902.82 579.12 579.12 1902.82"/><polygon class="cls-3" points="542.35 1866.05 533.16 1856.86 1856.86 533.16 1866.06 542.35 542.35 1866.05"/><polygon class="cls-3" points="560.74 1884.44 551.54 1875.24 1875.25 551.54 1884.44 560.73 560.74 1884.44"/><polygon class="cls-3" points="597.5 1921.2 588.31 1912.01 1912.02 588.31 1921.21 597.5 597.5 1921.2"/><polygon class="cls-4" points="-496.39 827.31 -505.58 818.12 818.12 -505.58 827.32 -496.39 -496.39 827.31"/><polygon class="cls-4" points="-533.16 790.54 -542.35 781.35 781.35 -542.35 790.55 -533.16 -533.16 790.54"/><polygon class="cls-4" points="-551.54 772.16 -560.74 762.96 762.97 -560.74 772.16 -551.55 -551.54 772.16"/><polygon class="cls-4" points="-625.08 698.62 -634.27 689.42 689.43 -634.28 698.62 -625.09 -625.08 698.62"/><polygon class="cls-4" points="-514.77 808.93 -523.97 799.73 799.74 -523.97 808.93 -514.78 -514.77 808.93"/><polygon class="cls-4" points="-606.7 717 -615.89 707.81 707.82 -615.89 717.01 -606.7 -606.7 717"/><polygon class="cls-4" points="-569.93 753.77 -579.12 744.58 744.58 -579.12 753.78 -569.93 -569.93 753.77"/><polygon class="cls-4" points="-588.31 735.39 -597.5 726.19 726.2 -597.51 735.39 -588.32 -588.31 735.39"/><polygon class="cls-4" points="-643.47 680.23 -652.66 671.04 671.04 -652.66 680.24 -643.47 -643.47 680.23"/><polygon class="cls-4" points="-330.93 992.77 -340.12 983.58 983.59 -340.12 992.78 -330.93 -330.93 992.77"/><polygon class="cls-4" points="-367.69 956 -376.89 946.81 946.82 -376.89 956.01 -367.7 -367.69 956"/><polygon class="cls-4" points="-386.08 937.62 -395.27 928.43 928.43 -395.28 937.62 -386.08 -386.08 937.62"/><polygon class="cls-4" points="-459.62 864.08 -468.81 854.89 854.89 -468.81 864.09 -459.62 -459.62 864.08"/><polygon class="cls-4" points="-349.31 974.39 -358.5 965.2 965.2 -358.51 974.39 -349.31 -349.31 974.39"/><polygon class="cls-4" points="-441.23 882.47 -450.43 873.27 873.28 -450.43 882.47 -441.24 -441.23 882.47"/><polygon class="cls-4" points="-404.46 919.23 -413.66 910.04 910.05 -413.66 919.24 -404.47 -404.46 919.23"/><polygon class="cls-4" points="-422.85 900.85 -432.04 891.66 891.66 -432.05 900.85 -422.85 -422.85 900.85"/><polygon class="cls-4" points="-478 845.7 -487.2 836.5 836.51 -487.2 845.7 -478.01 -478 845.7"/><polygon class="cls-4" points="-165.46 1158.24 -174.66 1149.05 1149.05 -174.66 1158.24 -165.47 -165.46 1158.24"/><polygon class="cls-4" points="-202.23 1121.47 -211.43 1112.28 1112.28 -211.43 1121.47 -202.24 -202.23 1121.47"/><polygon class="cls-4" points="-220.62 1103.08 -229.81 1093.89 1093.89 -229.81 1103.09 -220.62 -220.62 1103.08"/><polygon class="cls-4" points="-294.16 1029.54 -303.35 1020.35 1020.36 -303.35 1029.55 -294.16 -294.16 1029.54"/><polygon class="cls-4" points="-183.85 1139.85 -193.04 1130.66 1130.66 -193.04 1139.86 -183.85 -183.85 1139.85"/><polygon class="cls-4" points="-275.77 1047.93 -284.96 1038.74 1038.74 -284.97 1047.93 -275.77 -275.77 1047.93"/><polygon class="cls-4" points="-239 1084.7 -248.19 1075.51 1075.51 -248.2 1084.7 -239 -239 1084.7"/><polygon class="cls-4" points="-257.39 1066.31 -266.58 1057.12 1057.13 -266.58 1066.32 -257.39 -257.39 1066.31"/><polygon class="cls-4" points="-312.54 1011.16 -321.73 1001.97 1001.97 -321.74 1011.16 -312.55 -312.54 1011.16"/><polygon class="cls-4" points="0 1323.7 -9.19 1314.51 1314.51 -9.2 1323.7 0 0 1323.7"/><polygon class="cls-4" points="-36.77 1286.93 -45.96 1277.74 1277.74 -45.97 1286.93 -36.77 -36.77 1286.93"/><polygon class="cls-4" points="-55.16 1268.55 -64.35 1259.35 1259.36 -64.35 1268.55 -55.16 -55.16 1268.55"/><polygon class="cls-4" points="-128.69 1195.01 -137.88 1185.81 1185.82 -137.89 1195.01 -128.7 -128.69 1195.01"/><polygon class="cls-4" points="-18.39 1305.32 -27.58 1296.12 1296.13 -27.58 1305.32 -18.39 -18.39 1305.32"/><polygon class="cls-4" points="-110.31 1213.39 -119.5 1204.2 1204.2 -119.5 1213.39 -110.31 -110.31 1213.39"/><polygon class="cls-4" points="-73.54 1250.16 -82.73 1240.97 1240.97 -82.73 1250.16 -73.54 -73.54 1250.16"/><polygon class="cls-4" points="-91.92 1231.78 -101.12 1222.58 1222.59 -101.12 1231.78 -91.93 -91.92 1231.78"/><polygon class="cls-4" points="-147.08 1176.62 -156.27 1167.43 1167.43 -156.27 1176.63 -147.08 -147.08 1176.62"/><polygon class="cls-4" points="165.46 1489.16 156.27 1479.97 1479.97 156.27 1489.17 165.46 165.46 1489.16"/><polygon class="cls-4" points="128.69 1452.39 119.5 1443.2 1443.21 119.5 1452.4 128.69 128.69 1452.39"/><polygon class="cls-4" points="110.31 1434.01 101.12 1424.82 1424.82 101.11 1434.01 110.31 110.31 1434.01"/><polygon class="cls-4" points="36.77 1360.47 27.58 1351.28 1351.28 27.57 1360.47 36.77 36.77 1360.47"/><polygon class="cls-4" points="147.08 1470.78 137.89 1461.59 1461.59 137.88 1470.78 147.07 147.08 1470.78"/><polygon class="cls-4" points="55.16 1378.85 45.96 1369.66 1369.67 45.96 1378.86 55.15 55.16 1378.85"/><polygon class="cls-4" points="91.92 1415.62 82.73 1406.43 1406.44 82.73 1415.63 91.92 91.92 1415.62"/><polygon class="cls-4" points="73.54 1397.24 64.35 1388.05 1388.05 64.34 1397.24 73.54 73.54 1397.24"/><polygon class="cls-4" points="18.39 1342.08 9.19 1332.89 1332.9 9.19 1342.09 18.38 18.39 1342.08"/><polygon class="cls-4" points="330.93 1654.63 321.73 1645.43 1645.44 321.73 1654.63 330.92 330.93 1654.63"/><polygon class="cls-4" points="294.16 1617.86 284.96 1608.66 1608.67 284.96 1617.86 294.15 294.16 1617.86"/><polygon class="cls-4" points="275.77 1599.47 266.58 1590.28 1590.28 266.58 1599.48 275.77 275.77 1599.47"/><polygon class="cls-4" points="202.23 1525.93 193.04 1516.74 1516.74 193.04 1525.94 202.23 202.23 1525.93"/><polygon class="cls-4" points="312.54 1636.24 303.35 1627.05 1627.05 303.35 1636.24 312.54 312.54 1636.24"/><polygon class="cls-4" points="220.62 1544.32 211.43 1535.13 1535.13 211.42 1544.32 220.61 220.62 1544.32"/><polygon class="cls-4" points="257.39 1581.09 248.19 1571.89 1571.9 248.19 1581.09 257.38 257.39 1581.09"/><polygon class="cls-4" points="239 1562.7 229.81 1553.51 1553.51 229.81 1562.71 239 239 1562.7"/><polygon class="cls-4" points="183.85 1507.55 174.66 1498.36 1498.36 174.65 1507.55 183.84 183.85 1507.55"/><polygon class="cls-4" points="496.39 1820.09 487.2 1810.9 1810.9 487.19 1820.09 496.39 496.39 1820.09"/><polygon class="cls-4" points="459.62 1783.32 450.43 1774.13 1774.13 450.42 1783.32 459.62 459.62 1783.32"/><polygon class="cls-4" points="441.24 1764.93 432.04 1755.74 1755.75 432.04 1764.94 441.23 441.24 1764.93"/><polygon class="cls-4" points="367.7 1691.39 358.5 1682.2 1682.21 358.5 1691.4 367.69 367.7 1691.39"/><polygon class="cls-4" points="478 1801.7 468.81 1792.51 1792.52 468.81 1801.71 478 478 1801.7"/><polygon class="cls-4" points="386.08 1709.78 376.89 1700.59 1700.59 376.88 1709.78 386.08 386.08 1709.78"/><polygon class="cls-4" points="422.85 1746.55 413.66 1737.36 1737.36 413.65 1746.55 422.85 422.85 1746.55"/><polygon class="cls-4" points="404.46 1728.16 395.27 1718.97 1718.98 395.27 1728.17 404.46 404.46 1728.16"/><polygon class="cls-4" points="349.31 1673.01 340.12 1663.82 1663.82 340.12 1673.02 349.31 349.31 1673.01"/><polygon class="cls-4" points="661.85 1985.55 652.66 1976.36 1976.36 652.66 1985.56 661.85 661.85 1985.55"/><polygon class="cls-4" points="625.08 1948.78 615.89 1939.59 1939.59 615.89 1948.79 625.08 625.08 1948.78"/><polygon class="cls-4" points="606.7 1930.4 597.5 1921.21 1921.21 597.5 1930.4 606.7 606.7 1930.4"/><polygon class="cls-4" points="533.16 1856.86 523.97 1847.67 1847.67 523.96 1856.86 533.15 533.16 1856.86"/><polygon class="cls-4" points="643.47 1967.17 634.27 1957.97 1957.98 634.27 1967.17 643.46 643.47 1967.17"/><polygon class="cls-4" points="551.54 1875.24 542.35 1866.05 1866.06 542.35 1875.25 551.54 551.54 1875.24"/><polygon class="cls-4" points="588.31 1912.01 579.12 1902.82 1902.83 579.12 1912.02 588.31 588.31 1912.01"/><polygon class="cls-4" points="569.93 1893.63 560.74 1884.44 1884.44 560.73 1893.63 569.92 569.93 1893.63"/><polygon class="cls-4" points="514.77 1838.47 505.58 1829.28 1829.29 505.58 1838.48 514.77 514.77 1838.47"/><polygon class="cls-3" points="505.58 1829.28 496.39 1820.09 1820.09 496.39 1829.29 505.58 505.58 1829.28"/></g></pattern><clipPath id="clip-path-5"><path class="cls-1" d="M2.45,1.92H51.13a.53.53,0,0,1,.53.53V51.13a.52.52,0,0,1-.52.52H2.45a.52.52,0,0,1-.52-.52V2.45A.53.53,0,0,1,2.45,1.92Z"/></clipPath></defs><g class="cls-5"><g class="cls-5"><path class="cls-6" d="M44.25,1.92a7.41,7.41,0,0,1,7.41,7.41V44.25a7.41,7.41,0,0,1-7.41,7.41H9.33a7.41,7.41,0,0,1-7.41-7.41V9.33A7.41,7.41,0,0,1,9.33,1.92H44.25m0-1.92H9.33A9.33,9.33,0,0,0,0,9.33V44.25a9.34,9.34,0,0,0,9.33,9.33H44.25a9.35,9.35,0,0,0,9.33-9.33V9.33A9.34,9.34,0,0,0,44.25,0"/></g><g class="cls-7"><rect class="cls-8" x="-15.57" y="-7.29" width="90.33" height="92.77"/></g><g class="cls-9"><path class="cls-6" d="M25.15,7.66h.29a.72.72,0,0,0,.79-.78V4.81A.72.72,0,0,0,25.44,4h-.29a.71.71,0,0,0-.78.79V6.88a.71.71,0,0,0,.78.78"/><path class="cls-6" d="M22.82,7.66h.29a.72.72,0,0,0,.79-.78V4.81A.72.72,0,0,0,23.11,4h-.29a.71.71,0,0,0-.78.79V6.88a.71.71,0,0,0,.78.78"/><path class="cls-6" d="M20.07,20.57V18.14a.77.77,0,0,1,.84-.84H24.6a.77.77,0,0,0,.84-.84V13a.77.77,0,0,0-.84-.83H.84A.74.74,0,0,0,0,13l0,3.48a.77.77,0,0,0,.83.84H13.13a.77.77,0,0,1,.84.84v.26a1.29,1.29,0,0,1-.45,1l-.62.6a1.39,1.39,0,0,1-1.05.4H8.42a.77.77,0,0,0-.84.83V25.6a.77.77,0,0,0,.84.84h5.89a1.27,1.27,0,0,0,1-.42l4.32-4.43a1.37,1.37,0,0,0,.42-1"/><path class="cls-6" d="M7.84,10.78H23.58a.77.77,0,0,0,.84-.84V9.29a.77.77,0,0,0-.84-.84H22.32a1.15,1.15,0,0,1-1.1-1.1V5.7a.88.88,0,0,0-.86-.87.91.91,0,0,0-.84.55c-.05.16-.13.24-.29.24H7.87a.72.72,0,0,0-.81.81L7,9.94a.78.78,0,0,0,.84.84"/><path class="cls-6" d="M47.12,4h-.28a.72.72,0,0,0-.79.79V6.88a.72.72,0,0,0,.79.78h.28a.72.72,0,0,0,.79-.78V4.81A.72.72,0,0,0,47.12,4"/><path class="cls-6" d="M44.5,7.66h.29a.72.72,0,0,0,.79-.78V4.81A.72.72,0,0,0,44.79,4H44.5a.72.72,0,0,0-.78.79V6.88a.72.72,0,0,0,.78.78"/><path class="cls-6" d="M51.33,8.47,44,8.45a1,1,0,0,1-1.07-1.08V6.27a.77.77,0,0,0-.84-.83l-2,0a.73.73,0,0,0-.81.81v.19a.78.78,0,0,1-.84.84H35.44a.77.77,0,0,1-.83-.84V6.25a.77.77,0,0,0-.84-.84H30a.77.77,0,0,0-.84.84v.21a.77.77,0,0,1-.84.84h-.21a.76.76,0,0,0-.83.83V12.4a.77.77,0,0,0,.83.84h.21a.77.77,0,0,1,.84.84v2.07A.78.78,0,0,0,30,17h3.8a.78.78,0,0,0,.84-.84V14.08a.77.77,0,0,1,.83-.84h2.94a.77.77,0,0,1,.84.84v2.25a1.58,1.58,0,0,1-.35,1L36.81,20a1.24,1.24,0,0,1-1,.49h-4a.77.77,0,0,0-.84.84V25.6a.77.77,0,0,0,.84.84h6.75a1.11,1.11,0,0,0,1-.5l5.16-6.78a1.65,1.65,0,0,0,.34-1V14.08a.77.77,0,0,1,.84-.84h5.44a.77.77,0,0,0,.83-.84V9.29a.73.73,0,0,0-.81-.82"/><path class="cls-6" d="M25.44,43.61a1.07,1.07,0,0,1-1-.58l-1.15-2a1.78,1.78,0,0,1-.29-1V33.18a.05.05,0,0,0,0,0L22.87,33l-.1-.05a5.33,5.33,0,0,1-5.25-3.87h-.05a.38.38,0,0,0-.15,0l-.07,0a.88.88,0,0,0-.06.33v13a1.84,1.84,0,0,0,.31,1L21.33,49a1.06,1.06,0,0,0,1,.52h3.07a.77.77,0,0,0,.84-.83V44.45a.75.75,0,0,0-.79-.84"/><path class="cls-6" d="M13.86,28.6H9.73a.77.77,0,0,0-.84.84V40.05a1.78,1.78,0,0,1-.29,1l-1.18,2a1,1,0,0,1-1,.55H2c-.45,0-.71.32-.71.84v4.27a.77.77,0,0,0,.84.84H9.54a1.08,1.08,0,0,0,1-.53l3.85-5.6a1.62,1.62,0,0,0,.31-1v-13a.77.77,0,0,0-.84-.84"/><path class="cls-6" d="M38.74,36.93,35,34.24a1.17,1.17,0,0,1-.52-1V28.6a.77.77,0,0,0-.84-.83H29.45a.77.77,0,0,0-.84.83V48.72a.77.77,0,0,0,.84.84h4.16a.78.78,0,0,0,.84-.84V41.8c0-.68.44-.94,1-.55l0,0a.86.86,0,0,1-.11-.45.54.54,0,0,1,.13-.32.44.44,0,0,1,.32-.13.42.42,0,0,1,.32.13.49.49,0,0,1,.14.32v0a0,0,0,0,0,0,0c0,.09.09.18.14.27.11-.21.22-.41.34-.61.27-.44.55-.87.81-1.33s.51-.89.79-1.32.36-.57.53-.86l-.15-.09"/><path class="cls-6" d="M22.86,24.81a2.26,2.26,0,1,1-2.26,2.26,2.26,2.26,0,0,1,2.26-2.26m0-2.38a4.64,4.64,0,1,0,4.64,4.64,4.63,4.63,0,0,0-4.64-4.64"/><path class="cls-10" d="M37.78,36.29a.12.12,0,0,1,.1,0l1.32.75a.11.11,0,0,1,.06.07.17.17,0,0,1,0,.1l-2.62,4.56a.12.12,0,0,1-.08.06.1.1,0,0,1-.09,0l-1.32-.76a.12.12,0,0,1-.06-.08.1.1,0,0,1,0-.09l2.61-4.56a.11.11,0,0,1,.07-.06"/><path class="cls-10" d="M48.91,42.6h0a1.05,1.05,0,0,1,.49.64,1,1,0,0,1,0,.65.61.61,0,0,1-.07.14h0a1.05,1.05,0,0,1-1.22.48,1.06,1.06,0,0,1-.13.39h0a1,1,0,0,1-.63.48,1,1,0,0,1-.59,0,.9.9,0,0,1-.13.39h0a1,1,0,0,1-.64.49,1,1,0,0,1-.79-.1l0,0a1.07,1.07,0,0,1-.14.36h0a1,1,0,0,1-.5.45l-.13,0a1.06,1.06,0,0,1-.5,0l-.3-.12-.26-.15a2.49,2.49,0,0,0,.11-.29h0c0-.1,0-.2,0-.29h0a1.3,1.3,0,0,0-.18-.71h0a1.12,1.12,0,0,0-.31-.37L42.84,45a1.17,1.17,0,0,0-.32-.15s0-.07,0-.1l0-.12a1.39,1.39,0,0,0-.12-.28v0h0a1.43,1.43,0,0,0-.14-.2,1.3,1.3,0,0,0-.58-.39h0s0-.06,0-.08a1.05,1.05,0,0,0,0-.19.77.77,0,0,0-.07-.16.25.25,0,0,0,0-.07h0v0a1.27,1.27,0,0,0-.64-.55l0,0-.09,0h0l-.13,0-.26,0a1,1,0,0,0-.3.05l-.06-.11h0a1.23,1.23,0,0,0-.35-.4L39.38,42a1.45,1.45,0,0,0-.29-.11h0l-.08,0h-.09l-.14,0h-.07l-.18,0a1.28,1.28,0,0,0-.45.16l-.36.21a1,1,0,0,1,0-.93l1.54-2.68h0l.14-.25.07-.11,0-.06a1.21,1.21,0,0,1,1-.63h1a2.42,2.42,0,0,0-.31.33l-.11.15s0,0,0,0h0l0,0-.8,1.39h0l0,.07h0a1.22,1.22,0,0,0-.07.17,1.14,1.14,0,0,0-.08.47h0a.86.86,0,0,0,.09.39,1.28,1.28,0,0,0,.47.49l.08,0,.19.07a1.24,1.24,0,0,0,.83,0l.13,0a2.7,2.7,0,0,0,.74-.49h0l.31-.31h0l.08-.1a1.46,1.46,0,0,0,.16-.19h0l.24-.32h0a3.6,3.6,0,0,1,.55.07h0a3.19,3.19,0,0,1,.59.21l.18.09h0l.1.06,0,0,.06,0,.06,0L47.7,41.9h0Z"/><path class="cls-10" d="M48.56,38.17l1.58,2.75,0,.06A.77.77,0,0,1,50,42l-.08,0-.28.16-4.35-2.49h0L45,39.59l-.2-.1a3.79,3.79,0,0,0-.71-.26H44a3.23,3.23,0,0,0-.68-.08H43l0,0h0c-.13.19-.25.36-.37.51a3,3,0,0,1-.22.26l0,0a2.72,2.72,0,0,1-.24.24,1.24,1.24,0,0,1-.87.41.69.69,0,0,1-.2,0l-.1,0-.09-.07a.46.46,0,0,1-.13-.53l0-.1,0,0,.8-1.4h0a1.85,1.85,0,0,1,.78-.66,2.37,2.37,0,0,1,.88-.19l.27,0h3.88l.22,0a1.45,1.45,0,0,1,.33.08l0,0,.05,0a1.35,1.35,0,0,1,.5.48"/><path class="cls-10" d="M37.61,43.94a1,1,0,0,1,0-.59,1,1,0,0,1,.44-.6l0,0h0l.31-.18a.67.67,0,0,1,.52-.06.7.7,0,0,1,.43.32l0,.07,0,.06a.7.7,0,0,1,0,.38v0a.49.49,0,0,1,0,.11.72.72,0,0,1-.09.2h0l.65-.37a.31.31,0,0,1,.13-.06.61.61,0,0,1,.4,0,.57.57,0,0,1,.27.13.65.65,0,0,1,.15.18h0a.53.53,0,0,1,.06.14s0,0,0,.06v0a.76.76,0,0,1,0,.3s0,0,0,.06a1.22,1.22,0,0,1-.1.24.65.65,0,0,1,.51-.06l.17.07.11.07a.58.58,0,0,1,.15.19l0,0a.69.69,0,0,1,0,.13.62.62,0,0,1,0,.38h0a2,2,0,0,1-.12.31.73.73,0,0,1,.35-.09h.12l.05,0h0l.13,0a.7.7,0,0,1,.27.27.68.68,0,0,1,.1.36,1,1,0,0,1,0,.17v0a.36.36,0,0,1,0,.09h0a.66.66,0,0,1-.26.29L42,47a1,1,0,0,1-.77.09l-.06,0a1,1,0,0,1-.58-.47h0a1.08,1.08,0,0,1-.08-.19,1,1,0,0,1-.42,0,1,1,0,0,1-.63-.48h0a1.07,1.07,0,0,1-.09-.19,1.51,1.51,0,0,1-.42,0,1,1,0,0,1-.63-.49L38.21,45a.55.55,0,0,1-.05-.17.53.53,0,0,1,0-.13.57.57,0,0,1,0-.13,1,1,0,0,1-.45-.42h0a1,1,0,0,1-.09-.21"/><path class="cls-10" d="M48.84,37.06l3.28-1.92a.1.1,0,0,1,.09,0,.12.12,0,0,1,.08.06l.48.84v0l.18,4.9A.1.1,0,0,1,53,41a.12.12,0,0,1-.06.08l-1.31.76a.12.12,0,0,1-.1,0,.16.16,0,0,1-.08-.06L49.25,38h0l-.46-.8a.12.12,0,0,1,0-.1.11.11,0,0,1,.06-.07"/></g><g class="cls-5"><path class="cls-6" d="M36.14,27.74h.91a1.7,1.7,0,0,1,.57.09,1.39,1.39,0,0,1,.44.26,1.26,1.26,0,0,1,.28.4,1.35,1.35,0,0,1,.1.5,1.4,1.4,0,0,1-.1.51,1.28,1.28,0,0,1-.29.4,1.3,1.3,0,0,1-.44.27,1.69,1.69,0,0,1-.56.09h-.91Zm.91,2a.86.86,0,0,0,.61-.22.74.74,0,0,0,.22-.57.73.73,0,0,0-.22-.56.85.85,0,0,0-.61-.21h-.38v1.56Z"/><polygon class="cls-6" points="38.69 27.74 40.21 27.74 40.21 28.2 39.22 28.2 39.22 28.75 40.17 28.75 40.17 29.18 39.22 29.18 39.22 29.8 40.25 29.8 40.25 30.26 38.69 30.26 38.69 27.74"/><path class="cls-6" d="M40.61,30.09a.83.83,0,0,1-.26-.62h.52a.41.41,0,0,0,.11.3.4.4,0,0,0,.29.11.47.47,0,0,0,.28-.08.3.3,0,0,0,.1-.22.29.29,0,0,0-.07-.18,1,1,0,0,0-.25-.14L41,29.15a1.12,1.12,0,0,1-.47-.3.73.73,0,0,1-.14-.45.64.64,0,0,1,.06-.28.58.58,0,0,1,.18-.23.69.69,0,0,1,.27-.14.93.93,0,0,1,.34-.05.85.85,0,0,1,.6.19.79.79,0,0,1,.25.56h-.51a.37.37,0,0,0-.09-.24.33.33,0,0,0-.25-.09.43.43,0,0,0-.24.07.25.25,0,0,0-.09.2.29.29,0,0,0,.07.19.66.66,0,0,0,.24.14l.32.12a1.1,1.1,0,0,1,.46.29.64.64,0,0,1,.14.42.67.67,0,0,1-.25.55.63.63,0,0,1-.28.15,1.06,1.06,0,0,1-.37.06,1,1,0,0,1-.67-.22"/><rect class="cls-6" x="42.41" y="27.74" width="0.53" height="2.51"/><path class="cls-6" d="M45.76,28.9v.77a1.33,1.33,0,0,1-.5.47,1.42,1.42,0,0,1-.7.16,1.61,1.61,0,0,1-.54-.09,1.44,1.44,0,0,1-.44-.28,1.07,1.07,0,0,1-.28-.41,1.32,1.32,0,0,1-.1-.53,1.27,1.27,0,0,1,.1-.52,1.15,1.15,0,0,1,.28-.41,1.51,1.51,0,0,1,.42-.27,1.61,1.61,0,0,1,.54-.09,1.54,1.54,0,0,1,.43.06,1,1,0,0,1,.36.17,1.28,1.28,0,0,1,.26.26,1.14,1.14,0,0,1,.15.36h-.58a.6.6,0,0,0-.24-.28.76.76,0,0,0-.38-.09.78.78,0,0,0-.58.22.74.74,0,0,0-.16.27.88.88,0,0,0-.06.33.81.81,0,0,0,.23.6,1,1,0,0,0,.27.17.89.89,0,0,0,.34.07.81.81,0,0,0,.65-.29v-.23h-.67V28.9Z"/><polygon class="cls-6" points="48.11 27.74 48.11 30.26 47.55 30.26 46.6 28.57 46.6 30.26 46.09 30.26 46.09 27.74 46.65 27.74 47.59 29.4 47.59 27.74 48.11 27.74"/><path class="cls-6" d="M36.14,30.81H37a1,1,0,0,1,.65.21.76.76,0,0,1,.24.59.75.75,0,0,1-.24.59.92.92,0,0,1-.65.21h-.34v.91h-.53ZM37,32a.41.41,0,0,0,.28-.09.41.41,0,0,0,0-.54.39.39,0,0,0-.28-.09h-.32V32Z"/><path class="cls-6" d="M39.3,32.8h-.95l-.18.53h-.56l.93-2.52h.57L40,33.33h-.56Zm-.81-.41h.67l-.34-1.05Z"/><path class="cls-6" d="M40.2,30.81h.87a1,1,0,0,1,.65.21.85.85,0,0,1,.12,1,.69.69,0,0,1-.33.28l.62,1h-.62L41,32.41h-.24v.91H40.2ZM41.05,32a.36.36,0,1,0,0-.72h-.32V32Z"/><polygon class="cls-6" points="42.71 31.29 42.04 31.29 42.04 30.81 43.95 30.81 43.95 31.29 43.24 31.29 43.24 33.33 42.71 33.33 42.71 31.29"/><polygon class="cls-6" points="46.18 30.81 46.18 33.33 45.63 33.33 44.67 31.64 44.67 33.33 44.16 33.33 44.16 30.81 44.73 30.81 45.67 32.47 45.67 30.81 46.18 30.81"/><polygon class="cls-6" points="46.58 30.81 48.1 30.81 48.1 31.27 47.12 31.27 47.12 31.82 48.06 31.82 48.06 32.25 47.12 32.25 47.12 32.87 48.14 32.87 48.14 33.33 46.58 33.33 46.58 30.81"/><path class="cls-6" d="M48.41,30.81h.87a1,1,0,0,1,.65.21.85.85,0,0,1,.12,1,.61.61,0,0,1-.33.28l.62,1h-.62l-.54-.91h-.24v.91h-.53ZM49.26,32a.41.41,0,0,0,.28-.09.41.41,0,0,0,0-.54.39.39,0,0,0-.28-.09h-.32V32Z"/></g></g></svg>