<svg id="レイヤー_1" data-name="レイヤー 1" xmlns="http://www.w3.org/2000/svg" xmlns:xlink="http://www.w3.org/1999/xlink" viewBox="0 0 375 118"><defs><style>.cls-1{fill:none;}.cls-2{fill:#00a0e9;}.cls-3{fill:#178de6;}.cls-4{clip-path:url(#clip-path);}.cls-5{clip-path:url(#clip-path-3);}.cls-6{opacity:0.5;}.cls-7{clip-path:url(#clip-path-4);}.cls-8{fill:#0d1e42;}.cls-9{fill:url(#Unnamed_Pattern_14);}.cls-10{fill:#fff;}</style><clipPath id="clip-path"><rect class="cls-1" width="375" height="118"/></clipPath><clipPath id="clip-path-3"><polygon class="cls-1" points="0 0 0 118 169.76 118 205.24 118 375 118 375 0 0 0"/></clipPath><clipPath id="clip-path-4"><rect class="cls-1" x="-9.28" y="2" width="397.56" height="115.45"/></clipPath><pattern id="Unnamed_Pattern_14" data-name="Unnamed Pattern 14" width="1323.7" height="1323.7" patternTransform="matrix(1, 0, 0, -1, 4259.08, 21697.18)" patternUnits="userSpaceOnUse" viewBox="0 0 1323.7 1323.7"><rect class="cls-1" width="1323.7" height="1323.7"/><polygon class="cls-2" points="36.77 1323.7 0 1286.93 0 1268.55 55.15 1323.7 36.77 1323.7"/><polygon class="cls-2" points="220.62 1323.7 0 1103.09 0 1084.7 239 1323.7 220.62 1323.7"/><polygon class="cls-2" points="294.16 1323.7 0 1029.55 0 1011.16 312.54 1323.7 294.16 1323.7"/><polygon class="cls-2" points="257.39 1323.7 0 1066.32 0 1047.93 275.77 1323.7 257.39 1323.7"/><polygon class="cls-2" points="147.08 1323.7 0 1176.63 0 1158.24 165.46 1323.7 147.08 1323.7"/><polygon class="cls-2" points="73.54 1323.7 0 1250.16 0 1231.78 91.92 1323.7 73.54 1323.7"/><polygon class="cls-2" points="110.31 1323.7 0 1213.39 0 1195.01 128.69 1323.7 110.31 1323.7"/><polygon class="cls-2" points="183.85 1323.7 0 1139.86 0 1121.47 202.23 1323.7 183.85 1323.7"/><polygon class="cls-2" points="0 1323.7 0 1323.7 0 1305.32 18.38 1323.7 0 1323.7"/><polygon class="cls-2" points="367.7 1323.7 0 956.01 0 937.62 386.08 1323.7 367.7 1323.7"/><polygon class="cls-2" points="551.54 1323.7 0 772.16 0 753.78 569.93 1323.7 551.54 1323.7"/><polygon class="cls-2" points="625.08 1323.7 0 698.62 0 680.24 643.47 1323.7 625.08 1323.7"/><polygon class="cls-2" points="588.31 1323.7 0 735.39 0 717.01 606.7 1323.7 588.31 1323.7"/><polygon class="cls-2" points="478 1323.7 0 845.7 0 827.32 496.39 1323.7 478 1323.7"/><polygon class="cls-2" points="404.46 1323.7 0 919.24 0 900.85 422.85 1323.7 404.46 1323.7"/><polygon class="cls-2" points="441.24 1323.7 0 882.47 0 864.09 459.62 1323.7 441.24 1323.7"/><polygon class="cls-2" points="514.77 1323.7 0 808.93 0 790.55 533.16 1323.7 514.77 1323.7"/><polygon class="cls-2" points="330.93 1323.7 0 992.78 0 974.39 349.31 1323.7 330.93 1323.7"/><polygon class="cls-2" points="698.62 1323.7 0 625.08 0 606.7 717.01 1323.7 698.62 1323.7"/><polygon class="cls-2" points="882.47 1323.7 0 441.24 0 422.85 900.85 1323.7 882.47 1323.7"/><polygon class="cls-2" points="956.01 1323.7 0 367.69 0 349.31 974.39 1323.7 956.01 1323.7"/><polygon class="cls-2" points="919.24 1323.7 0 404.47 0 386.08 937.62 1323.7 919.24 1323.7"/><polygon class="cls-2" points="808.93 1323.7 0 514.77 0 496.39 827.32 1323.7 808.93 1323.7"/><polygon class="cls-2" points="735.39 1323.7 0 588.31 0 569.93 753.78 1323.7 735.39 1323.7"/><polygon class="cls-2" points="772.16 1323.7 0 551.54 0 533.16 790.55 1323.7 772.16 1323.7"/><polygon class="cls-2" points="845.7 1323.7 0 478 0 459.62 864.08 1323.7 845.7 1323.7"/><polygon class="cls-2" points="661.85 1323.7 0 661.85 0 643.47 680.24 1323.7 661.85 1323.7"/><polygon class="cls-2" points="1029.55 1323.7 0 294.16 0 275.77 1047.93 1323.7 1029.55 1323.7"/><polygon class="cls-2" points="1213.39 1323.7 0 110.31 0 91.92 1231.78 1323.7 1213.39 1323.7"/><polygon class="cls-2" points="1286.93 1323.7 0 36.77 0 18.39 1305.32 1323.7 1286.93 1323.7"/><polygon class="cls-2" points="1250.17 1323.7 0 73.54 0 55.16 1268.55 1323.7 1250.17 1323.7"/><polygon class="cls-2" points="1139.86 1323.7 0 183.85 0 165.46 1158.24 1323.7 1139.86 1323.7"/><polygon class="cls-2" points="1066.32 1323.7 0 257.39 0 239 1084.7 1323.7 1066.32 1323.7"/><polygon class="cls-2" points="1103.09 1323.7 0 220.62 0 202.23 1121.47 1323.7 1103.09 1323.7"/><polygon class="cls-2" points="1176.63 1323.7 0 147.08 0 128.69 1195.01 1323.7 1176.63 1323.7"/><polygon class="cls-2" points="992.78 1323.7 0 330.93 0 312.54 1011.16 1323.7 992.78 1323.7"/><polygon class="cls-2" points="36.77 0 55.15 0 1323.7 1268.55 1323.7 1286.93 36.77 0"/><polygon class="cls-2" points="220.62 0 239 0 1323.7 1084.7 1323.7 1103.09 220.62 0"/><polygon class="cls-2" points="294.16 0 312.54 0 1323.7 1011.16 1323.7 1029.55 294.16 0"/><polygon class="cls-2" points="257.39 0 275.77 0 1323.7 1047.93 1323.7 1066.32 257.39 0"/><polygon class="cls-2" points="147.08 0 165.46 0 1323.7 1158.24 1323.7 1176.63 147.08 0"/><polygon class="cls-2" points="73.54 0 91.92 0 1323.7 1231.78 1323.7 1250.16 73.54 0"/><polygon class="cls-2" points="110.31 0 128.69 0 1323.7 1195.01 1323.7 1213.39 110.31 0"/><polygon class="cls-2" points="183.85 0 202.23 0 1323.7 1121.47 1323.7 1139.86 183.85 0"/><polygon class="cls-2" points="1323.7 1323.7 0 0 0 0 18.39 0 1323.7 1305.32 1323.7 1323.7"/><polygon class="cls-2" points="367.7 0 386.08 0 1323.7 937.62 1323.7 956.01 367.7 0"/><polygon class="cls-2" points="551.54 0 569.93 0 1323.7 753.78 1323.7 772.16 551.54 0"/><polygon class="cls-2" points="625.08 0 643.47 0 1323.7 680.24 1323.7 698.62 625.08 0"/><polygon class="cls-2" points="588.31 0 606.7 0 1323.7 717.01 1323.7 735.39 588.31 0"/><polygon class="cls-2" points="478 0 496.39 0 1323.7 827.32 1323.7 845.7 478 0"/><polygon class="cls-2" points="404.47 0 422.85 0 1323.7 900.85 1323.7 919.24 404.47 0"/><polygon class="cls-2" points="441.24 0 459.62 0 1323.7 864.08 1323.7 882.47 441.24 0"/><polygon class="cls-2" points="514.77 0 533.16 0 1323.7 790.54 1323.7 808.93 514.77 0"/><polygon class="cls-2" points="330.93 0 349.31 0 1323.7 974.39 1323.7 992.78 330.93 0"/><polygon class="cls-2" points="698.62 0 717.01 0 1323.7 606.7 1323.7 625.08 698.62 0"/><polygon class="cls-2" points="882.47 0 900.85 0 1323.7 422.85 1323.7 441.23 882.47 0"/><polygon class="cls-2" points="956.01 0 974.39 0 1323.7 349.31 1323.7 367.69 956.01 0"/><polygon class="cls-2" points="919.24 0 937.62 0 1323.7 386.08 1323.7 404.47 919.24 0"/><polygon class="cls-2" points="808.93 0 827.32 0 1323.7 496.39 1323.7 514.77 808.93 0"/><polygon class="cls-2" points="735.39 0 753.78 0 1323.7 569.93 1323.7 588.31 735.39 0"/><polygon class="cls-2" points="772.16 0 790.55 0 1323.7 533.16 1323.7 551.54 772.16 0"/><polygon class="cls-2" points="845.7 0 864.09 0 1323.7 459.62 1323.7 478 845.7 0"/><polygon class="cls-2" points="661.85 0 680.24 0 1323.7 643.47 1323.7 661.85 661.85 0"/><polygon class="cls-2" points="1029.55 0 1047.93 0 1323.7 275.77 1323.7 294.16 1029.55 0"/><polygon class="cls-2" points="1213.4 0 1231.78 0 1323.7 91.92 1323.7 110.31 1213.4 0"/><polygon class="cls-2" points="1286.93 0 1305.32 0 1323.7 18.39 1323.7 36.77 1286.93 0"/><polygon class="cls-2" points="1250.16 0 1268.55 0 1323.7 55.15 1323.7 73.54 1250.16 0"/><polygon class="cls-2" points="1139.86 0 1158.24 0 1323.7 165.46 1323.7 183.85 1139.86 0"/><polygon class="cls-2" points="1066.32 0 1084.7 0 1323.7 239 1323.7 257.39 1066.32 0"/><polygon class="cls-2" points="1103.09 0 1121.47 0 1323.7 202.23 1323.7 220.62 1103.09 0"/><polygon class="cls-2" points="1176.63 0 1195.01 0 1323.7 128.69 1323.7 147.08 1176.63 0"/><polygon class="cls-3" points="312.54 1323.7 0 1011.16 0 992.78 330.93 1323.7 312.54 1323.7"/><polygon class="cls-3" points="239 1323.7 0 1084.7 0 1066.32 257.39 1323.7 239 1323.7"/><polygon class="cls-3" points="202.23 1323.7 0 1121.47 0 1103.09 220.62 1323.7 202.23 1323.7"/><polygon class="cls-3" points="55.15 1323.7 0 1268.55 0 1250.16 73.54 1323.7 55.15 1323.7"/><polygon class="cls-3" points="275.77 1323.7 0 1047.93 0 1029.55 294.16 1323.7 275.77 1323.7"/><polygon class="cls-3" points="91.92 1323.7 0 1231.78 0 1213.39 110.31 1323.7 91.92 1323.7"/><polygon class="cls-3" points="165.46 1323.7 0 1158.24 0 1139.86 183.85 1323.7 165.46 1323.7"/><polygon class="cls-3" points="128.69 1323.7 0 1195.01 0 1176.63 147.08 1323.7 128.69 1323.7"/><polygon class="cls-3" points="18.39 1323.7 0 1305.32 0 1286.93 36.77 1323.7 18.39 1323.7"/><polygon class="cls-3" points="643.47 1323.7 0 680.24 0 661.85 661.85 1323.7 643.47 1323.7"/><polygon class="cls-3" points="569.93 1323.7 0 753.78 0 735.39 588.31 1323.7 569.93 1323.7"/><polygon class="cls-3" points="533.16 1323.7 0 790.55 0 772.16 551.54 1323.7 533.16 1323.7"/><polygon class="cls-3" points="386.08 1323.7 0 937.62 0 919.24 404.46 1323.7 386.08 1323.7"/><polygon class="cls-3" points="606.7 1323.7 0 717.01 0 698.62 625.08 1323.7 606.7 1323.7"/><polygon class="cls-3" points="422.85 1323.7 0 900.85 0 882.47 441.24 1323.7 422.85 1323.7"/><polygon class="cls-3" points="496.39 1323.7 0 827.32 0 808.93 514.77 1323.7 496.39 1323.7"/><polygon class="cls-3" points="459.62 1323.7 0 864.09 0 845.7 478 1323.7 459.62 1323.7"/><polygon class="cls-3" points="349.31 1323.7 0 974.39 0 956.01 367.7 1323.7 349.31 1323.7"/><polygon class="cls-3" points="974.39 1323.7 0 349.31 0 330.93 992.78 1323.7 974.39 1323.7"/><polygon class="cls-3" points="900.85 1323.7 0 422.85 0 404.47 919.24 1323.7 900.85 1323.7"/><polygon class="cls-3" points="864.09 1323.7 0 459.62 0 441.24 882.47 1323.7 864.09 1323.7"/><polygon class="cls-3" points="717.01 1323.7 0 606.7 0 588.31 735.39 1323.7 717.01 1323.7"/><polygon class="cls-3" points="937.62 1323.7 0 386.08 0 367.7 956.01 1323.7 937.62 1323.7"/><polygon class="cls-3" points="753.78 1323.7 0 569.93 0 551.54 772.16 1323.7 753.78 1323.7"/><polygon class="cls-3" points="827.32 1323.7 0 496.39 0 478 845.7 1323.7 827.32 1323.7"/><polygon class="cls-3" points="790.54 1323.7 0 533.16 0 514.77 808.93 1323.7 790.54 1323.7"/><polygon class="cls-3" points="680.24 1323.7 0 643.47 0 625.08 698.62 1323.7 680.24 1323.7"/><polygon class="cls-3" points="1305.32 1323.7 0 18.39 0 0 1323.7 1323.7 1323.7 1323.7 1305.32 1323.7"/><polygon class="cls-3" points="1231.78 1323.7 0 91.92 0 73.54 1250.16 1323.7 1231.78 1323.7"/><polygon class="cls-3" points="1195.01 1323.7 0 128.69 0 110.31 1213.39 1323.7 1195.01 1323.7"/><polygon class="cls-3" points="1047.93 1323.7 0 275.77 0 257.39 1066.32 1323.7 1047.93 1323.7"/><polygon class="cls-3" points="1268.55 1323.7 0 55.15 0 36.77 1286.93 1323.7 1268.55 1323.7"/><polygon class="cls-3" points="1084.7 1323.7 0 239 0 220.62 1103.09 1323.7 1084.7 1323.7"/><polygon class="cls-3" points="1158.24 1323.7 0 165.46 0 147.08 1176.63 1323.7 1158.24 1323.7"/><polygon class="cls-3" points="1121.47 1323.7 0 202.23 0 183.85 1139.86 1323.7 1121.47 1323.7"/><polygon class="cls-3" points="1011.16 1323.7 0 312.54 0 294.16 1029.55 1323.7 1011.16 1323.7"/><polygon class="cls-3" points="312.54 0 330.93 0 1323.7 992.78 1323.7 1011.16 312.54 0"/><polygon class="cls-3" points="239 0 257.39 0 1323.7 1066.32 1323.7 1084.7 239 0"/><polygon class="cls-3" points="202.23 0 220.62 0 1323.7 1103.09 1323.7 1121.47 202.23 0"/><polygon class="cls-3" points="55.16 0 73.54 0 1323.7 1250.16 1323.7 1268.55 55.16 0"/><polygon class="cls-3" points="275.77 0 294.16 0 1323.7 1029.55 1323.7 1047.93 275.77 0"/><polygon class="cls-3" points="91.92 0 110.31 0 1323.7 1213.39 1323.7 1231.78 91.92 0"/><polygon class="cls-3" points="165.46 0 183.85 0 1323.7 1139.86 1323.7 1158.24 165.46 0"/><polygon class="cls-3" points="128.69 0 147.08 0 1323.7 1176.63 1323.7 1195.01 128.69 0"/><polygon class="cls-3" points="18.39 0 36.77 0 1323.7 1286.93 1323.7 1305.32 18.39 0"/><polygon class="cls-3" points="643.47 0 661.85 0 1323.7 661.85 1323.7 680.24 643.47 0"/><polygon class="cls-3" points="569.93 0 588.31 0 1323.7 735.39 1323.7 753.78 569.93 0"/><polygon class="cls-3" points="533.16 0 551.54 0 1323.7 772.16 1323.7 790.54 533.16 0"/><polygon class="cls-3" points="386.08 0 404.46 0 1323.7 919.24 1323.7 937.62 386.08 0"/><polygon class="cls-3" points="606.7 0 625.08 0 1323.7 698.62 1323.7 717.01 606.7 0"/><polygon class="cls-3" points="422.85 0 441.24 0 1323.7 882.47 1323.7 900.85 422.85 0"/><polygon class="cls-3" points="496.39 0 514.77 0 1323.7 808.93 1323.7 827.32 496.39 0"/><polygon class="cls-3" points="459.62 0 478 0 1323.7 845.7 1323.7 864.08 459.62 0"/><polygon class="cls-3" points="349.31 0 367.7 0 1323.7 956.01 1323.7 974.39 349.31 0"/><polygon class="cls-3" points="974.39 0 992.78 0 1323.7 330.93 1323.7 349.31 974.39 0"/><polygon class="cls-3" points="900.85 0 919.24 0 1323.7 404.47 1323.7 422.85 900.85 0"/><polygon class="cls-3" points="864.09 0 882.47 0 1323.7 441.23 1323.7 459.62 864.09 0"/><polygon class="cls-3" points="717.01 0 735.39 0 1323.7 588.31 1323.7 606.7 717.01 0"/><polygon class="cls-3" points="937.62 0 956.01 0 1323.7 367.69 1323.7 386.08 937.62 0"/><polygon class="cls-3" points="753.78 0 772.16 0 1323.7 551.54 1323.7 569.93 753.78 0"/><polygon class="cls-3" points="827.32 0 845.7 0 1323.7 478 1323.7 496.39 827.32 0"/><polygon class="cls-3" points="790.55 0 808.93 0 1323.7 514.77 1323.7 533.16 790.55 0"/><polygon class="cls-3" points="680.24 0 698.62 0 1323.7 625.08 1323.7 643.47 680.24 0"/><polygon class="cls-3" points="1305.32 0 1323.7 0 1323.7 18.39 1305.32 0"/><polygon class="cls-3" points="1231.78 0 1250.16 0 1323.7 73.54 1323.7 91.92 1231.78 0"/><polygon class="cls-3" points="1195.01 0 1213.39 0 1323.7 110.31 1323.7 128.69 1195.01 0"/><polygon class="cls-3" points="1047.93 0 1066.32 0 1323.7 257.39 1323.7 275.77 1047.93 0"/><polygon class="cls-3" points="1268.55 0 1286.93 0 1323.7 36.77 1323.7 55.15 1268.55 0"/><polygon class="cls-3" points="1084.7 0 1103.09 0 1323.7 220.62 1323.7 239 1084.7 0"/><polygon class="cls-3" points="1158.24 0 1176.63 0 1323.7 147.08 1323.7 165.46 1158.24 0"/><polygon class="cls-3" points="1121.47 0 1139.86 0 1323.7 183.85 1323.7 202.23 1121.47 0"/><polygon class="cls-3" points="1011.16 0 1029.55 0 1323.7 294.16 1323.7 312.54 1011.16 0"/><polygon class="cls-2" points="992.78 0 1011.16 0 1323.7 312.54 1323.7 330.93 992.78 0"/></pattern></defs><g class="cls-4"><g class="cls-4"><g class="cls-5"><g class="cls-6"><g class="cls-7"><polygon class="cls-8" points="-9.28 2 -9.28 101.74 170.69 101.74 171.76 101.74 189.5 117.45 207.24 101.74 208.31 101.74 388.28 101.74 388.28 2 -9.28 2"/></g></g></g><polygon class="cls-9" points="0 0 0 99.74 168.69 99.74 169.76 99.74 187.5 115.45 205.24 99.74 206.31 99.74 375 99.74 375 0 0 0"/><g class="cls-4"><path class="cls-10" d="M126,63.29c-1,6.15-5.48,7.88-9.64,7.88-7,0-10.5-5.26-10.5-11,0-5.4,3.41-11.28,10.45-11.28,4.27,0,8.91,2.43,9.53,7.72h-4.32a4.88,4.88,0,0,0-5.13-4.16c-4,0-6.29,3.51-6.29,7.67s2.13,7.39,6.24,7.39a4.9,4.9,0,0,0,5.32-4.18Z"/><path class="cls-10" d="M130.8,59.91c0-6.5,4.16-11.09,10.53-11.09s10.52,4.64,10.52,11.09c0,5.83-3.37,11.29-10.52,11.29S130.8,65.74,130.8,59.91m16.79-.13c0-3.56-1.92-7.42-6.26-7.42S135,56.22,135,59.78c0,4.32,2.18,7.85,6.29,7.85s6.26-3.53,6.26-7.85"/><path class="cls-10" d="M157.8,49.28h4.91l7.16,12.39c.48.84,1.45,2.78,2,3.91-.05-.38-.16-4-.16-4.72l-.08-11.58h3.94V70.74h-4.51l-7.61-13.42c-.38-.65-1.38-2.7-1.94-3.94,0,.35.13,4.1.13,4.75l.08,12.61H157.8Z"/><polygon class="cls-10" points="187.96 52.81 180.91 52.81 180.91 49.28 199.21 49.28 199.21 52.81 192.14 52.81 192.14 70.74 187.96 70.74 187.96 52.81"/><path class="cls-10" d="M208.67,49.06h4.1l8.31,21.71h-4.37l-2-5.48h-8l-2,5.48h-4.37Zm5.07,12.82L211.63,56c-.24-.65-.64-1.87-.94-2.86-.27,1-.62,2-.92,2.86l-2.1,5.85Z"/><path class="cls-10" d="M244.68,63.29c-1.05,6.15-5.48,7.88-9.64,7.88-7,0-10.5-5.26-10.5-11,0-5.4,3.41-11.28,10.45-11.28,4.26,0,8.91,2.43,9.53,7.72H240.2a4.88,4.88,0,0,0-5.13-4.16c-4,0-6.29,3.51-6.29,7.67s2.13,7.39,6.24,7.39a4.9,4.9,0,0,0,5.31-4.18Z"/><polygon class="cls-10" points="255.94 52.81 248.9 52.81 248.9 49.28 267.2 49.28 267.2 52.81 260.13 52.81 260.13 70.74 255.94 70.74 255.94 52.81"/></g><polygon class="cls-10" points="153.72 35.76 152.49 35.76 152.49 35.29 146.48 35.29 146.48 34.09 152.49 34.09 152.49 30.2 146.54 30.2 146.54 29.03 153.72 29.03 153.72 35.76"/><g class="cls-4"><path class="cls-10" d="M158.38,31.09s0,.05-.06.05l-.06,0A7.36,7.36,0,0,0,155.79,29l.83-.8a7.72,7.72,0,0,1,2.61,2Zm-1.34,5c-.2,0-1.22-1.27-1.22-1.33s0-.05.09-.06c4.28-.63,7-4.31,7.67-5.22a13.21,13.21,0,0,0,.48,1.35.14.14,0,0,1,0,.06.09.09,0,0,1,0,.06,14.45,14.45,0,0,1-6.85,4.83c0,.19-.07.31-.16.31"/><path class="cls-10" d="M169.29,29.58a11.89,11.89,0,0,1-2.84,2.67h-.11a7,7,0,0,0-1.09-.63,9.85,9.85,0,0,0,4.13-4.4c1.34.4,1.39.41,1.39.53s-.14.13-.31.13h-.07c-.14.25-.28.49-.42.71l2.63,0c.1,0,.12-.08.18-.08a2.19,2.19,0,0,1,.93.72c0,.08-.1.14-.24.17-1.3,2.78-3.25,5.72-6.93,6.8h0a.13.13,0,0,1-.08,0,7.5,7.5,0,0,0-1.1-.85,8.93,8.93,0,0,0,4.56-2.45A7.2,7.2,0,0,0,168,31.56l.78-.77a9.27,9.27,0,0,1,1.88,1.13,13.51,13.51,0,0,0,1.38-2.34Z"/><path class="cls-10" d="M178.22,29.66a10.93,10.93,0,0,1-2.94,2.74l-.06,0a7.12,7.12,0,0,0-1.12-.62,9.65,9.65,0,0,0,4.14-4.41c.27.08,1,.26,1.24.33s.21.11.21.16-.18.15-.34.15c-.13.23-.28.46-.42.68l2.49,0c.1,0,.13-.1.22-.1s.93.58.93.74-.08.14-.25.17c-1.6,3.14-3.28,5.59-6.72,6.76h-.06a.06.06,0,0,1,0,0,8.17,8.17,0,0,0-1.19-.87,9.76,9.76,0,0,0,6.52-5.69Z"/><path class="cls-10" d="M189.12,32.93s0,0-.05,0l0,0a14.25,14.25,0,0,0-3.17-1.63v5.1h-1.23V28.64s0-.78,0-1.22c1.28,0,1.62.08,1.62.23s-.09.18-.33.22c0,.36,0,.79,0,.79v1.43a24.8,24.8,0,0,1,4.09,1.71Z"/><path class="cls-10" d="M191.47,29.37V28.19l6.42,0c.14,0,.17-.09.26-.09a2.93,2.93,0,0,1,.95.78c0,.07-.08.12-.25.18-1,4.1-3.33,6-5.73,7L193,36s0,0-.08-.05a8.33,8.33,0,0,0-1.26-1,7.57,7.57,0,0,0,5.7-5.69Z"/><path class="cls-10" d="M206.49,31.84H204.9l0,2.36c0,.41,0,.76,0,.83v.06c0,1.21-1.07,1.35-2,1.35h-.13c-.05,0-.07,0-.08-.08a6,6,0,0,0-.67-1c.25,0,.67.11,1,.11.71,0,.77-.33.77-.52,0,0,0-1,0-2.28a12.91,12.91,0,0,1-3.21,3,.05.05,0,0,1,0,0h-.06v0h0a5.23,5.23,0,0,0-1.06-.67,8.36,8.36,0,0,0,3.81-3.12h-3.06v-.95h3.64v-.46a6.73,6.73,0,0,0-.06-.88c1.09,0,1.39.06,1.39.21s-.19.21-.3.25c0,.2,0,.44,0,.44v.44h1.6Z"/><rect class="cls-10" x="207.94" y="31.18" width="8.47" height="1.19"/><path class="cls-10" d="M224.75,35.7s0,0-.05,0,0,0,0-.06c-.18-.41-.35-.78-.54-1.14-1.29.26-4.16.73-6.26,1v0c0,.2-.08.34-.16.34s-.13-.06-.18-.22c-.16-.41-.42-1.29-.42-1.29l1.13-.1a42.64,42.64,0,0,0,2.27-6.64s.84.22,1.33.4q.21.08.21.18c0,.08-.15.16-.36.16h0a51.62,51.62,0,0,1-2.14,5.74c1.43-.19,2.92-.44,4-.65a13.8,13.8,0,0,0-1.66-2.1l1-.54A15,15,0,0,1,225.77,35Z"/></g></g></g></svg>