<?xml version="1.0" encoding="utf-8"?>
<!-- Generator: Adobe Illustrator 25.4.1, SVG Export Plug-In . SVG Version: 6.00 Build 0)  -->
<svg version="1.1" id="レイヤー_1" xmlns="http://www.w3.org/2000/svg" xmlns:xlink="http://www.w3.org/1999/xlink" x="0px"
	 y="0px" viewBox="0 0 375 118" style="enable-background:new 0 0 375 118;" xml:space="preserve">
<style type="text/css">
	.st0{fill:none;}
	.st1{fill:#00A0E9;}
	.st2{fill:#178DE6;}
	.st3{clip-path:url(#SVGID_00000150073650500552656230000010220452013384619193_);}
	.st4{clip-path:url(#SVGID_00000104697430500084832440000002024775493829758106_);}
	.st5{clip-path:url(#SVGID_00000079478547621842245430000013079561558724232870_);}
	.st6{opacity:0.5;}
	.st7{clip-path:url(#SVGID_00000044859303521111399290000017921569913224439724_);}
	.st8{fill:#0D1E42;}
	.st9{fill:url(#SVGID_00000084512646346485560730000007324329479629975687_);}
	.st10{clip-path:url(#SVGID_00000143584304223203215960000002724166163473794947_);}
	.st11{fill:#FFFFFF;}
</style>
<pattern  y="118" width="1323.7" height="1323.7" patternUnits="userSpaceOnUse" id="Unnamed_Pattern_13" viewBox="0 -1323.7 1323.7 1323.7" style="overflow:visible;">
	<g>
		<rect y="-1323.7" class="st0" width="1323.7" height="1323.7"/>
		<rect y="-1323.7" class="st0" width="1323.7" height="1323.7"/>
		<polygon class="st1" points="36.8,-1323.7 0,-1286.9 0,-1268.6 55.2,-1323.7 		"/>
		<polygon class="st1" points="220.6,-1323.7 0,-1103.1 0,-1084.7 239,-1323.7 		"/>
		<polygon class="st1" points="294.2,-1323.7 0,-1029.6 0,-1011.2 312.5,-1323.7 		"/>
		<polygon class="st1" points="257.4,-1323.7 0,-1066.3 0,-1047.9 275.8,-1323.7 		"/>
		<polygon class="st1" points="147.1,-1323.7 0,-1176.6 0,-1158.2 165.5,-1323.7 		"/>
		<polygon class="st1" points="73.5,-1323.7 0,-1250.2 0,-1231.8 91.9,-1323.7 		"/>
		<polygon class="st1" points="110.3,-1323.7 0,-1213.4 0,-1195 128.7,-1323.7 		"/>
		<polygon class="st1" points="183.9,-1323.7 0,-1139.9 0,-1121.5 202.2,-1323.7 		"/>
		<polygon class="st1" points="0,-1323.7 0,-1323.7 0,-1305.3 18.4,-1323.7 		"/>
		<polygon class="st1" points="367.7,-1323.7 0,-956 0,-937.6 386.1,-1323.7 		"/>
		<polygon class="st1" points="551.5,-1323.7 0,-772.2 0,-753.8 569.9,-1323.7 		"/>
		<polygon class="st1" points="625.1,-1323.7 0,-698.6 0,-680.2 643.5,-1323.7 		"/>
		<polygon class="st1" points="588.3,-1323.7 0,-735.4 0,-717 606.7,-1323.7 		"/>
		<polygon class="st1" points="478,-1323.7 0,-845.7 0,-827.3 496.4,-1323.7 		"/>
		<polygon class="st1" points="404.5,-1323.7 0,-919.2 0,-900.8 422.9,-1323.7 		"/>
		<polygon class="st1" points="441.2,-1323.7 0,-882.5 0,-864.1 459.6,-1323.7 		"/>
		<polygon class="st1" points="514.8,-1323.7 0,-808.9 0,-790.5 533.2,-1323.7 		"/>
		<polygon class="st1" points="330.9,-1323.7 0,-992.8 0,-974.4 349.3,-1323.7 		"/>
		<polygon class="st1" points="698.6,-1323.7 0,-625.1 0,-606.7 717,-1323.7 		"/>
		<polygon class="st1" points="882.5,-1323.7 0,-441.2 0,-422.9 900.8,-1323.7 		"/>
		<polygon class="st1" points="956,-1323.7 0,-367.7 0,-349.3 974.4,-1323.7 		"/>
		<polygon class="st1" points="919.2,-1323.7 0,-404.5 0,-386.1 937.6,-1323.7 		"/>
		<polygon class="st1" points="808.9,-1323.7 0,-514.8 0,-496.4 827.3,-1323.7 		"/>
		<polygon class="st1" points="735.4,-1323.7 0,-588.3 0,-569.9 753.8,-1323.7 		"/>
		<polygon class="st1" points="772.2,-1323.7 0,-551.5 0,-533.2 790.5,-1323.7 		"/>
		<polygon class="st1" points="845.7,-1323.7 0,-478 0,-459.6 864.1,-1323.7 		"/>
		<polygon class="st1" points="661.8,-1323.7 0,-661.8 0,-643.5 680.2,-1323.7 		"/>
		<polygon class="st1" points="1029.6,-1323.7 0,-294.2 0,-275.8 1047.9,-1323.7 		"/>
		<polygon class="st1" points="1213.4,-1323.7 0,-110.3 0,-91.9 1231.8,-1323.7 		"/>
		<polygon class="st1" points="1286.9,-1323.7 0,-36.8 0,-18.4 1305.3,-1323.7 		"/>
		<polygon class="st1" points="1250.2,-1323.7 0,-73.5 0,-55.2 1268.6,-1323.7 		"/>
		<polygon class="st1" points="1139.9,-1323.7 0,-183.9 0,-165.5 1158.2,-1323.7 		"/>
		<polygon class="st1" points="1066.3,-1323.7 0,-257.4 0,-239 1084.7,-1323.7 		"/>
		<polygon class="st1" points="1103.1,-1323.7 0,-220.6 0,-202.2 1121.5,-1323.7 		"/>
		<polygon class="st1" points="1176.6,-1323.7 0,-147.1 0,-128.7 1195,-1323.7 		"/>
		<polygon class="st1" points="992.8,-1323.7 0,-330.9 0,-312.5 1011.2,-1323.7 		"/>
		<polygon class="st1" points="36.8,0 55.2,0 1323.7,-1268.6 1323.7,-1286.9 		"/>
		<polygon class="st1" points="220.6,0 239,0 1323.7,-1084.7 1323.7,-1103.1 		"/>
		<polygon class="st1" points="294.2,0 312.5,0 1323.7,-1011.2 1323.7,-1029.6 		"/>
		<polygon class="st1" points="257.4,0 275.8,0 1323.7,-1047.9 1323.7,-1066.3 		"/>
		<polygon class="st1" points="147.1,0 165.5,0 1323.7,-1158.2 1323.7,-1176.6 		"/>
		<polygon class="st1" points="73.5,0 91.9,0 1323.7,-1231.8 1323.7,-1250.2 		"/>
		<polygon class="st1" points="110.3,0 128.7,0 1323.7,-1195 1323.7,-1213.4 		"/>
		<polygon class="st1" points="183.9,0 202.2,0 1323.7,-1121.5 1323.7,-1139.9 		"/>
		<polygon class="st1" points="1323.7,-1323.7 0,0 0,0 18.4,0 1323.7,-1305.3 		"/>
		<polygon class="st1" points="367.7,0 386.1,0 1323.7,-937.6 1323.7,-956 		"/>
		<polygon class="st1" points="551.5,0 569.9,0 1323.7,-753.8 1323.7,-772.2 		"/>
		<polygon class="st1" points="625.1,0 643.5,0 1323.7,-680.2 1323.7,-698.6 		"/>
		<polygon class="st1" points="588.3,0 606.7,0 1323.7,-717 1323.7,-735.4 		"/>
		<polygon class="st1" points="478,0 496.4,0 1323.7,-827.3 1323.7,-845.7 		"/>
		<polygon class="st1" points="404.5,0 422.9,0 1323.7,-900.8 1323.7,-919.2 		"/>
		<polygon class="st1" points="441.2,0 459.6,0 1323.7,-864.1 1323.7,-882.5 		"/>
		<polygon class="st1" points="514.8,0 533.2,0 1323.7,-790.5 1323.7,-808.9 		"/>
		<polygon class="st1" points="330.9,0 349.3,0 1323.7,-974.4 1323.7,-992.8 		"/>
		<polygon class="st1" points="698.6,0 717,0 1323.7,-606.7 1323.7,-625.1 		"/>
		<polygon class="st1" points="882.5,0 900.8,0 1323.7,-422.9 1323.7,-441.2 		"/>
		<polygon class="st1" points="956,0 974.4,0 1323.7,-349.3 1323.7,-367.7 		"/>
		<polygon class="st1" points="919.2,0 937.6,0 1323.7,-386.1 1323.7,-404.5 		"/>
		<polygon class="st1" points="808.9,0 827.3,0 1323.7,-496.4 1323.7,-514.8 		"/>
		<polygon class="st1" points="735.4,0 753.8,0 1323.7,-569.9 1323.7,-588.3 		"/>
		<polygon class="st1" points="772.2,0 790.5,0 1323.7,-533.2 1323.7,-551.5 		"/>
		<polygon class="st1" points="845.7,0 864.1,0 1323.7,-459.6 1323.7,-478 		"/>
		<polygon class="st1" points="661.8,0 680.2,0 1323.7,-643.5 1323.7,-661.8 		"/>
		<polygon class="st1" points="1029.6,0 1047.9,0 1323.7,-275.8 1323.7,-294.2 		"/>
		<polygon class="st1" points="1213.4,0 1231.8,0 1323.7,-91.9 1323.7,-110.3 		"/>
		<polygon class="st1" points="1286.9,0 1305.3,0 1323.7,-18.4 1323.7,-36.8 		"/>
		<polygon class="st1" points="1250.2,0 1268.6,0 1323.7,-55.2 1323.7,-73.5 		"/>
		<polygon class="st1" points="1139.9,0 1158.2,0 1323.7,-165.5 1323.7,-183.9 		"/>
		<polygon class="st1" points="1066.3,0 1084.7,0 1323.7,-239 1323.7,-257.4 		"/>
		<polygon class="st1" points="1103.1,0 1121.5,0 1323.7,-202.2 1323.7,-220.6 		"/>
		<polygon class="st1" points="1176.6,0 1195,0 1323.7,-128.7 1323.7,-147.1 		"/>
		<polygon class="st2" points="312.5,-1323.7 0,-1011.2 0,-992.8 330.9,-1323.7 		"/>
		<polygon class="st2" points="239,-1323.7 0,-1084.7 0,-1066.3 257.4,-1323.7 		"/>
		<polygon class="st2" points="202.2,-1323.7 0,-1121.5 0,-1103.1 220.6,-1323.7 		"/>
		<polygon class="st2" points="55.2,-1323.7 0,-1268.6 0,-1250.2 73.5,-1323.7 		"/>
		<polygon class="st2" points="275.8,-1323.7 0,-1047.9 0,-1029.6 294.2,-1323.7 		"/>
		<polygon class="st2" points="91.9,-1323.7 0,-1231.8 0,-1213.4 110.3,-1323.7 		"/>
		<polygon class="st2" points="165.5,-1323.7 0,-1158.2 0,-1139.9 183.9,-1323.7 		"/>
		<polygon class="st2" points="128.7,-1323.7 0,-1195 0,-1176.6 147.1,-1323.7 		"/>
		<polygon class="st2" points="18.4,-1323.7 0,-1305.3 0,-1286.9 36.8,-1323.7 		"/>
		<polygon class="st2" points="643.5,-1323.7 0,-680.2 0,-661.8 661.8,-1323.7 		"/>
		<polygon class="st2" points="569.9,-1323.7 0,-753.8 0,-735.4 588.3,-1323.7 		"/>
		<polygon class="st2" points="533.2,-1323.7 0,-790.5 0,-772.2 551.5,-1323.7 		"/>
		<polygon class="st2" points="386.1,-1323.7 0,-937.6 0,-919.2 404.5,-1323.7 		"/>
		<polygon class="st2" points="606.7,-1323.7 0,-717 0,-698.6 625.1,-1323.7 		"/>
		<polygon class="st2" points="422.9,-1323.7 0,-900.8 0,-882.5 441.2,-1323.7 		"/>
		<polygon class="st2" points="496.4,-1323.7 0,-827.3 0,-808.9 514.8,-1323.7 		"/>
		<polygon class="st2" points="459.6,-1323.7 0,-864.1 0,-845.7 478,-1323.7 		"/>
		<polygon class="st2" points="349.3,-1323.7 0,-974.4 0,-956 367.7,-1323.7 		"/>
		<polygon class="st2" points="974.4,-1323.7 0,-349.3 0,-330.9 992.8,-1323.7 		"/>
		<polygon class="st2" points="900.8,-1323.7 0,-422.9 0,-404.5 919.2,-1323.7 		"/>
		<polygon class="st2" points="864.1,-1323.7 0,-459.6 0,-441.2 882.5,-1323.7 		"/>
		<polygon class="st2" points="717,-1323.7 0,-606.7 0,-588.3 735.4,-1323.7 		"/>
		<polygon class="st2" points="937.6,-1323.7 0,-386.1 0,-367.7 956,-1323.7 		"/>
		<polygon class="st2" points="753.8,-1323.7 0,-569.9 0,-551.5 772.2,-1323.7 		"/>
		<polygon class="st2" points="827.3,-1323.7 0,-496.4 0,-478 845.7,-1323.7 		"/>
		<polygon class="st2" points="790.5,-1323.7 0,-533.2 0,-514.8 808.9,-1323.7 		"/>
		<polygon class="st2" points="680.2,-1323.7 0,-643.5 0,-625.1 698.6,-1323.7 		"/>
		<polygon class="st2" points="1305.3,-1323.7 0,-18.4 0,0 1323.7,-1323.7 1323.7,-1323.7 		"/>
		<polygon class="st2" points="1231.8,-1323.7 0,-91.9 0,-73.5 1250.2,-1323.7 		"/>
		<polygon class="st2" points="1195,-1323.7 0,-128.7 0,-110.3 1213.4,-1323.7 		"/>
		<polygon class="st2" points="1047.9,-1323.7 0,-275.8 0,-257.4 1066.3,-1323.7 		"/>
		<polygon class="st2" points="1268.6,-1323.7 0,-55.2 0,-36.8 1286.9,-1323.7 		"/>
		<polygon class="st2" points="1084.7,-1323.7 0,-239 0,-220.6 1103.1,-1323.7 		"/>
		<polygon class="st2" points="1158.2,-1323.7 0,-165.5 0,-147.1 1176.6,-1323.7 		"/>
		<polygon class="st2" points="1121.5,-1323.7 0,-202.2 0,-183.9 1139.9,-1323.7 		"/>
		<polygon class="st2" points="1011.2,-1323.7 0,-312.5 0,-294.2 1029.6,-1323.7 		"/>
		<polygon class="st2" points="312.5,0 330.9,0 1323.7,-992.8 1323.7,-1011.2 		"/>
		<polygon class="st2" points="239,0 257.4,0 1323.7,-1066.3 1323.7,-1084.7 		"/>
		<polygon class="st2" points="202.2,0 220.6,0 1323.7,-1103.1 1323.7,-1121.5 		"/>
		<polygon class="st2" points="55.2,0 73.5,0 1323.7,-1250.2 1323.7,-1268.6 		"/>
		<polygon class="st2" points="275.8,0 294.2,0 1323.7,-1029.6 1323.7,-1047.9 		"/>
		<polygon class="st2" points="91.9,0 110.3,0 1323.7,-1213.4 1323.7,-1231.8 		"/>
		<polygon class="st2" points="165.5,0 183.9,0 1323.7,-1139.9 1323.7,-1158.2 		"/>
		<polygon class="st2" points="128.7,0 147.1,0 1323.7,-1176.6 1323.7,-1195 		"/>
		<polygon class="st2" points="18.4,0 36.8,0 1323.7,-1286.9 1323.7,-1305.3 		"/>
		<polygon class="st2" points="643.5,0 661.8,0 1323.7,-661.8 1323.7,-680.2 		"/>
		<polygon class="st2" points="569.9,0 588.3,0 1323.7,-735.4 1323.7,-753.8 		"/>
		<polygon class="st2" points="533.2,0 551.5,0 1323.7,-772.2 1323.7,-790.5 		"/>
		<polygon class="st2" points="386.1,0 404.5,0 1323.7,-919.2 1323.7,-937.6 		"/>
		<polygon class="st2" points="606.7,0 625.1,0 1323.7,-698.6 1323.7,-717 		"/>
		<polygon class="st2" points="422.9,0 441.2,0 1323.7,-882.5 1323.7,-900.8 		"/>
		<polygon class="st2" points="496.4,0 514.8,0 1323.7,-808.9 1323.7,-827.3 		"/>
		<polygon class="st2" points="459.6,0 478,0 1323.7,-845.7 1323.7,-864.1 		"/>
		<polygon class="st2" points="349.3,0 367.7,0 1323.7,-956 1323.7,-974.4 		"/>
		<polygon class="st2" points="974.4,0 992.8,0 1323.7,-330.9 1323.7,-349.3 		"/>
		<polygon class="st2" points="900.8,0 919.2,0 1323.7,-404.5 1323.7,-422.9 		"/>
		<polygon class="st2" points="864.1,0 882.5,0 1323.7,-441.2 1323.7,-459.6 		"/>
		<polygon class="st2" points="717,0 735.4,0 1323.7,-588.3 1323.7,-606.7 		"/>
		<polygon class="st2" points="937.6,0 956,0 1323.7,-367.7 1323.7,-386.1 		"/>
		<polygon class="st2" points="753.8,0 772.2,0 1323.7,-551.5 1323.7,-569.9 		"/>
		<polygon class="st2" points="827.3,0 845.7,0 1323.7,-478 1323.7,-496.4 		"/>
		<polygon class="st2" points="790.5,0 808.9,0 1323.7,-514.8 1323.7,-533.2 		"/>
		<polygon class="st2" points="680.2,0 698.6,0 1323.7,-625.1 1323.7,-643.5 		"/>
		<polygon class="st2" points="1305.3,0 1323.7,0 1323.7,-18.4 		"/>
		<polygon class="st2" points="1231.8,0 1250.2,0 1323.7,-73.5 1323.7,-91.9 		"/>
		<polygon class="st2" points="1195,0 1213.4,0 1323.7,-110.3 1323.7,-128.7 		"/>
		<polygon class="st2" points="1047.9,0 1066.3,0 1323.7,-257.4 1323.7,-275.8 		"/>
		<polygon class="st2" points="1268.6,0 1286.9,0 1323.7,-36.8 1323.7,-55.2 		"/>
		<polygon class="st2" points="1084.7,0 1103.1,0 1323.7,-220.6 1323.7,-239 		"/>
		<polygon class="st2" points="1158.2,0 1176.6,0 1323.7,-147.1 1323.7,-165.5 		"/>
		<polygon class="st2" points="1121.5,0 1139.9,0 1323.7,-183.9 1323.7,-202.2 		"/>
		<polygon class="st2" points="1011.2,0 1029.6,0 1323.7,-294.2 1323.7,-312.5 		"/>
		<polygon class="st1" points="992.8,0 1011.2,0 1323.7,-312.5 1323.7,-330.9 		"/>
	</g>
</pattern>
<g>
	<defs>
		<rect id="SVGID_1_" width="375" height="118"/>
	</defs>
	<clipPath id="SVGID_00000109709568479708678640000004104825339218434736_">
		<use xlink:href="#SVGID_1_"  style="overflow:visible;"/>
	</clipPath>
	<g style="clip-path:url(#SVGID_00000109709568479708678640000004104825339218434736_);">
		<g>
			<defs>
				<rect id="SVGID_00000043424805726268186210000002427919218847850408_" width="375" height="118"/>
			</defs>
			<clipPath id="SVGID_00000129898228989184515020000004246387527379015601_">
				<use xlink:href="#SVGID_00000043424805726268186210000002427919218847850408_"  style="overflow:visible;"/>
			</clipPath>
			<g style="clip-path:url(#SVGID_00000129898228989184515020000004246387527379015601_);">
				<g>
					<defs>
						<polygon id="SVGID_00000049221785457415449060000003647991414574134173_" points="0,0 0,118 169.8,118 205.2,118 375,118 
							375,0 						"/>
					</defs>
					<clipPath id="SVGID_00000076591856352787774580000003565130130739028670_">
						<use xlink:href="#SVGID_00000049221785457415449060000003647991414574134173_"  style="overflow:visible;"/>
					</clipPath>
					<g style="clip-path:url(#SVGID_00000076591856352787774580000003565130130739028670_);">
						<g class="st6">
							<g>
								<defs>
									<rect id="SVGID_00000060023798903775747870000001660959015258105476_" x="-9.3" y="2" width="397.6" height="115.4"/>
								</defs>
								<clipPath id="SVGID_00000135649894482884201890000011329883867117304453_">
									<use xlink:href="#SVGID_00000060023798903775747870000001660959015258105476_"  style="overflow:visible;"/>
								</clipPath>
								<g style="clip-path:url(#SVGID_00000135649894482884201890000011329883867117304453_);">
									<polygon class="st8" points="-9.3,2 -9.3,101.7 170.7,101.7 171.8,101.7 189.5,117.4 207.2,101.7 208.3,101.7 388.3,101.7 
										388.3,2 									"/>
								</g>
							</g>
						</g>
					</g>
				</g>
				
					<pattern  id="SVGID_00000027563045946643950540000017131378622907112603_" xlink:href="#Unnamed_Pattern_13" patternTransform="matrix(1 0 0 1 4711.0801 -20221.1797)">
				</pattern>
				<polygon style="fill:url(#SVGID_00000027563045946643950540000017131378622907112603_);" points="0,0 0,99.7 168.7,99.7 
					169.8,99.7 187.5,115.4 205.2,99.7 206.3,99.7 375,99.7 375,0 				"/>
				<g>
					<defs>
						<rect id="SVGID_00000086681921139365820380000009774916140128756410_" width="375" height="118"/>
					</defs>
					<clipPath id="SVGID_00000121261197345994390210000007497986010329531283_">
						<use xlink:href="#SVGID_00000086681921139365820380000009774916140128756410_"  style="overflow:visible;"/>
					</clipPath>
					<g style="clip-path:url(#SVGID_00000121261197345994390210000007497986010329531283_);">
						<path class="st11" d="M170.1,72.9c-1.1,0.1-2.2,0.1-2.5,0.1c-3.2,0-7.1-1-7.6-5.2c-5.6-1-8.4-5.8-8.4-11c0-6.5,4.2-11,10.5-11
							s10.5,4.6,10.5,11c0,5.3-2.8,10.2-8.8,11.1c0.3,1.5,1.8,1.9,3.9,1.9c0.5,0,1.6,0,3.4-0.2L170.1,72.9z M168.5,56.7
							c0-3.6-1.9-7.4-6.3-7.4s-6.3,3.9-6.3,7.4c0,4.3,2.2,7.8,6.3,7.8S168.5,61,168.5,56.7"/>
						<path class="st11" d="M193.2,67.7c-0.8-0.9-1.5-1.7-2.3-2.5c-1.8,1.8-4.2,2.8-6.7,3c-3.6,0-6.5-2.5-6.5-5.8
							c0-2.1,1.3-4.5,4.4-6.7c-1.9-2.3-2.3-3.7-2.3-4.9c0-2.9,2.4-5,5.6-5c3.7,0,5.4,2.6,5.4,4.7c0,3-2.4,4.8-3.8,5.7
							c1.2,1.3,2.5,2.7,3.8,4c1-1.4,1.8-3,2.4-4.7h3.9c-0.9,2.5-2.2,4.9-3.9,7.1c1.7,1.8,3.4,3.5,4.8,5L193.2,67.7z M184.2,58.1
							c-1.8,1.5-2.7,2.9-2.7,4.1c0,1.5,1.2,2.7,2.6,2.7c0.1,0,0.2,0,0.3,0c1.1,0,2.2-0.3,4.3-2.1c-1.5-1.6-2.9-3.2-4.4-4.8
							L184.2,58.1z M185.3,53.6c1.2-0.9,2.2-1.6,2.2-3.1c0-1-0.9-1.9-2-1.8c0,0,0,0,0,0c-1.1-0.1-2.1,0.7-2.2,1.8c0,0.1,0,0.2,0,0.3
							c0.1,1.2,0.7,2.3,1.6,3.1C185.1,53.8,185.2,53.7,185.3,53.6"/>
						<path class="st11" d="M209.1,46h4.1l8.3,21.7h-4.4l-2-5.5h-8l-2,5.5h-4.4L209.1,46z M214.2,58.8l-2.1-5.8
							c-0.2-0.7-0.6-1.9-1-2.9c-0.3,1-0.6,2.1-0.9,2.9l-2.1,5.8H214.2z"/>
						<path class="st11" d="M166.7,27c-0.9,0.3-1.8,0.4-2.7,0.4h-0.3c0,1.3,0.1,1.9,0.1,2.6c1.2,0.4,2.4,1,3.3,1.9l-1,0.8
							c0,0,0,0-0.1,0l0,0c-0.6-0.7-1.4-1.3-2.2-1.7c-0.1,1.1-1.1,1.9-2.2,1.8c0,0,0,0,0,0c-1.1,0-2.4-0.7-2.4-1.6
							c0-0.4,0.3-1.5,2.6-1.5c0.3,0,0.5,0,0.8,0v-0.1c0-0.4-0.1-1.1-0.1-1.9c0-1.4,0-2.7-0.1-3.5c1.3,0,1.5,0.1,1.5,0.2
							s-0.1,0.2-0.3,0.2c-0.1,0.5-0.1,1.1-0.1,1.6h0.3c0.9,0,1.8-0.2,2.6-0.5L166.7,27z M161.6,30.7c-0.7,0-1.2,0.2-1.2,0.6
							s0.9,0.6,1.3,0.6c0.5,0.1,1-0.3,1.1-0.9c0,0,0-0.1,0-0.1C162.4,30.8,162,30.7,161.6,30.7"/>
						<path class="st11" d="M172.6,33.4C172.6,33.4,172.6,33.4,172.6,33.4C172.5,33.4,172.5,33.4,172.6,33.4c-1-1.5-2.2-2.8-3.5-4
							c-0.3-0.3-0.5-0.6-0.5-1c0-0.4,0.2-0.8,0.5-1.1c1.2-1,2.3-2.1,3.3-3.2c0,0,0,0,0.1,0s1.2,1,1.2,1.2c0,0-0.1,0.1-0.1,0.1
							c-0.1,0-0.2,0-0.2-0.1c-0.9,0.8-2.4,1.8-3.2,2.5c-0.2,0.2-0.4,0.4-0.4,0.7c0,0.2,0.1,0.4,0.4,0.6c1.4,1.1,2.7,2.4,3.7,3.9
							L172.6,33.4z"/>
						<path class="st11" d="M182.8,25.5L182.8,25.5C182.8,25.5,182.8,25.6,182.8,25.5c-1.2,0.4-2.3,0.6-3.4,0.8
							c0,0.3-0.1,0.6-0.1,0.9c0.5-0.1,1-0.2,1.5-0.2h0.2c0.1-0.2,0.1-0.4,0.1-0.6c0.9,0.1,1.3,0.2,1.3,0.4s-0.1,0.1-0.2,0.1
							s-0.1,0.2-0.1,0.3c1.2,0.3,2.1,1.3,2.1,2.5c0,1.9-1.6,3.4-4.4,3.8c-0.1,0-0.1,0-0.1,0c-0.3-0.4-0.6-0.7-1-1
							c3.1-0.2,4.3-1.5,4.3-2.8c0-0.8-0.5-1.5-1.2-1.7c-0.6,1.1-1.3,2.1-2.2,3c0.1,0.2,0.2,0.4,0.3,0.5l-1.1,0.3l-0.1-0.1
							c-1,0.8-1.5,1-1.9,1c-1,0-1.2-1-1.2-1.5c0-1.4,1.5-2.8,2.7-3.5c0-0.1,0-0.2,0-0.4s0-0.5,0.1-0.8c-0.1,0-0.5,0-0.8,0
							c-0.4,0-0.9-0.1-1.3-0.3v-1.1v0h0.1c0.5,0.2,1,0.4,1.5,0.4c0.2,0,0.5,0,0.6,0c0-0.3,0-0.7,0-1.1V24c0,0,0.9,0,1.2,0.1
							c0.2,0,0.2,0.1,0.2,0.1s-0.1,0.2-0.3,0.2c0,0.2-0.1,0.5-0.1,0.9c1.1-0.2,2.2-0.5,3.2-0.8L182.8,25.5z M176.7,31
							c0,0.5,0.2,0.5,0.4,0.5c0.5-0.2,1-0.4,1.4-0.8c-0.1-0.5-0.2-1.1-0.2-1.6v-0.3C177.4,29.3,176.9,30.1,176.7,31 M180.7,27.8
							c-0.5,0-1,0.2-1.5,0.4c0,0.3,0,0.6,0,0.9c0,0.3,0,0.5,0.1,0.8c0,0,0.1,0,0.1-0.1C179.9,29.2,180.4,28.6,180.7,27.8L180.7,27.8
							z"/>
						<path class="st11" d="M187,25.2C187,25.2,187,25.2,187,25.2C187,25.1,187,25.2,187,25.2L187,25.2c0.3,0,0.6,0,0.8,0
							c1,0,2-0.2,3-0.5c0.1,0,0.2-0.1,0.2-0.1s1,0.6,1,0.8s-0.1,0.1-0.2,0.1c-0.9,0.9-2.1,1.9-2.9,2.7l-0.1,0l0,0h0.1
							c0.5-0.2,1.1-0.3,1.7-0.3c1.5,0,2.8,0.8,2.8,2.2c0,1.7-1.8,3.1-3.8,3.1c-1.4,0-2.6-0.6-2.6-1.6c0-0.8,0.7-1.2,1.6-1.2
							c0.9-0.1,1.8,0.6,1.9,1.5c0,0,0,0.1,0,0.1v0c0.9-0.2,1.6-0.9,1.8-1.9c0-1.4-1.5-1.4-1.8-1.4c-1.5,0-2.9,0.7-3.8,1.9h-0.1l0,0
							l-1-0.6c0,0,0,0,0,0l0,0c0.7-0.7,1.4-1.2,1.8-1.6c0.1,0,0.1-0.1,0.2-0.1c0.9-0.8,1.8-1.7,2.6-2.6l0,0h-0.1
							c-0.8,0.3-1.7,0.5-2.5,0.5h-0.2L187,25.2z M189.4,32c0-0.1,0-0.8-0.9-0.8c-0.5,0-0.5,0.3-0.5,0.4c0,0.5,0.8,0.7,1.4,0.7h0.1
							C189.4,32.1,189.4,32.1,189.4,32"/>
						<path class="st11" d="M199.6,26.1h-1.1V27h-1v-0.9h-0.9c-0.1,0.7-0.4,1.3-0.9,1.9l0,0c-0.3-0.1-0.7-0.2-1.1-0.3
							c0.8-0.6,1.2-1.6,1.1-2.6c0-0.5,0-1.1,0-1.1l0.8,0.2c0.9,0,1.7-0.2,2.5-0.4c0.3,0.2,0.5,0.5,0.7,0.9c0,0.1,0,0.1-0.1,0.1l0,0
							c-0.1,0-0.2-0.1-0.3-0.1c-0.9,0.2-1.8,0.3-2.7,0.4v0.4h2.9L199.6,26.1z M199.4,32.5c0,0-0.1,0.1-0.1,0.1c-0.1,0-0.2,0-0.3-0.1
							c-1,0.6-2.1,1-3.3,1.2l0,0c0,0,0,0-0.1,0c-0.3-0.3-0.6-0.6-1-0.8c1.3-0.1,2.6-0.5,3.8-1.1C198.4,31.8,199.4,32.4,199.4,32.5
							 M203.3,31.9h-1v-0.2h-4.6v0.2h-1v-4.7h6.6L203.3,31.9z M197.7,28.6h4.6V28h-4.6V28.6z M197.7,29.8h4.6v-0.6h-4.6V29.8z
							 M197.7,31h4.6v-0.6h-4.6V31z M204.7,26.1H203V27h-1v-0.9h-1.2c-0.1,0.4-0.3,0.8-0.6,1.1l0,0c-0.4-0.1-0.7-0.2-1.1-0.3
							c0.6-0.5,1-1.2,1-2c0-0.4,0-0.9,0-0.9l0.8,0.1c0.9,0,1.9-0.2,2.8-0.5c0.3,0.2,0.5,0.5,0.7,0.9c0,0.1,0,0.1-0.1,0.1
							c0,0,0,0,0,0c-0.1,0-0.2-0.1-0.3-0.1c-1,0.2-1.9,0.3-2.9,0.4V25c0,0.1,0,0.2,0,0.3h3.7L204.7,26.1z M201.2,31.8
							c1.2,0.5,2.5,0.8,3.9,0.9c-0.3,0.3-0.6,0.6-0.9,0.9c0,0,0,0-0.1,0c-1.3-0.2-2.5-0.6-3.6-1.2L201.2,31.8z"/>
						<path class="st11" d="M210.3,28h-1v-0.3h-2v6.1h-1.1v-9.7h4L210.3,28z M207.3,25.6h2v-0.6h-2V25.6z M207.3,27h2v-0.7h-2V27z
							 M212.8,32.3h-1v-0.4h-2.1v0.6h-1v-3.9h4.1L212.8,32.3z M209.7,30.9h2.1v-1.5h-2.1V30.9z M215.3,30.6c0,0.2,0,1.2,0,1.7
							c0,1.1-1,1.4-1.8,1.4h-0.3c0,0-0.1,0-0.1-0.1c0,0,0,0,0,0c-0.2-0.4-0.4-0.7-0.7-1c0.3,0.1,0.7,0.1,1,0.1
							c0.4,0,0.8-0.1,0.8-0.5v-4.6h-2V28h-1v-3.9h4.1L215.3,30.6z M212.2,25.6h2V25h-2V25.6z M212.2,27h2v-0.7h-2V27z"/>
					</g>
				</g>
			</g>
		</g>
	</g>
</g>
</svg>
